<?xml version="1.0" encoding="utf-8"?>
<!-- Generator: Adobe Illustrator 21.0.0, SVG Export Plug-In . SVG Version: 6.00 Build 0)  -->
<svg version="1.1" id="Layer_1" xmlns="http://www.w3.org/2000/svg" xmlns:xlink="http://www.w3.org/1999/xlink" x="0px" y="0px"
	 viewBox="0 0 1534.5 913.4" style="enable-background:new 0 0 1534.5 913.4;" xml:space="preserve">
<style type="text/css">
	.st0{fill:#E5E6FF;}
	.st1{fill:#7171FF;}
	.st2{fill:none;}
	.st3{fill:#FED402;}
</style>
<path class="st0" d="M1426.7,891.3l38.9-39.1l9.4,9.4l-39,39L1426.7,891.3z M1339.1,864.5l0.1-29.4l7,7h9.8v5.5L1339.1,864.5z
	 M1481.7,840.1l0.3-36.9l7.9,7.9V828l5.7,5.7l3.7-3.7l4.8,4.8l-24.8,24.8l-3.2-3.2l4.9-4.9v-4.3l-7.1-7.1H1481.7z M1454.5,711.2h3.3
	l12.5,12.5h-3.1L1454.5,711.2z M1468.4,681.2h2.8l8.3,8.3v20.8l-2.1-2.1v-18.3L1468.4,681.2z M1350.9,673l11-11v14.4l13,13v14.8
	l23.5,23.5v48.8l-27.6,27.6v14.6h-10.3l-9.9,9.9l-6.8-6.9l-4.6,4.6l-16.4-16.4v-8.5l-7.1-7.1l5.1-5.1v-7.8l-14.1,14.1v-19.4h-43.5
	l-9.5,9.5H1236l-5.7,5.7H1217l-8.6-8.6h8.7v-63.5l11.3-11.3h22.5l33-32.6l6,6l16.8-16.8h28.5L1322,678l18.3,18.3h10.6V673z
	 M892.9,684.3l24.7-24.7v66h-24.7V684.3z M1246.7,652.5h8.1v8.1L1246.7,652.5z M1270.4,649.9h17l-3.1,3.1h-6.5l-7.3,7.3
	L1270.4,649.9z M1190,636.5h23.8l8.7,8.7h41.3l3,3H1190V636.5z M1421.9,634.2h4.6l25.6,25.6h-5L1421.9,634.2z M1401.1,632.9
	l10.2-10.2v13.8h-19.1l-3.8-3.7h12.7L1401.1,632.9L1401.1,632.9z M1280,621.2h22.1l3.6,3.6H1284L1280,621.2z M1306.2,609.5h16.8v9.9
	l4.7,4.7l10.2-10.2l7.4,7.4h19.9l34.6,34.6H1385l-11.6-11.6h-15.7l6.8,6.8H1353l-22.3-22.3h-10.1V620l-4.2,4l-4.2-4.1h8.4v-2.8h-7.2
	L1306.2,609.5z M1255.3,601.4h24.7l-3.9,3.9h-18.7v6.3h15.5l-8.8,8.8l5.9,5.9l-5.5,5.5l-8.7-8.7v10.6l-7.1-7.1v-17.8L1255.3,601.4z
	 M1290.2,611v-15.8l8,7.8L1290.2,611z M1136.7,580h9.2l40.1,40.1v16.1l-49.3-49.3L1136.7,580L1136.7,580z M1214.2,597.4l23.9-23.9
	l6.4,6.4v31.6l-12.6,12.6h-13.1l-20-20l6.9-6.9L1214.2,597.4z M1275.2,566.4l8.4-8.1v13l-6.1,6.1l-11-11H1275.2z M1064.3,578.2V555
	l12.1,11.1L1064.3,578.2z M1237,564.6l15-14.9v5.3l-9.5,9.5h-5.5V564.6z M1254,544.4l-0.2-6.4l22.1,22.1h-6.2L1254,544.4z
	 M1251.4,512.6h9.6v25.9h6.6l12.2,12.2h-6.7l-12.4-12.2l0,0l-9.3-9.3L1251.4,512.6z M1196.6,506h12.2l-12.2,12.2V506z M324.2,491.9
	h12.9l17.8,17.8H392l8.2,8.2l-50.2-0.2L324.2,491.9z M1247.4,481.3l6.3-6.3v20.8l-6.2-6.2L1247.4,481.3z M790.1,433.5v-4.1h16.3v4.1
	H790.1z M721.7,390h5.1v21.6l-5.1-5.1V390z M1318,373.6l4-4l6.2,6.9v40.1h-10l-7.7,7.7h-17.6v15.4l-13.4-13.4l15.7-15.7h7.5
	l15.3-15.3V373.6z M1316.1,355.4v-16.2l9.6,9.6h12v5.4l-8.8,8.8h-12.6l3.8,3.8l-3.2,3.2l-7.7-7.7L1316.1,355.4z M443.4,354.7
	l24.4-24.4v24.4H443.4z M640.1,334.3l19.4-20.9v20.9H640.1z M657.2,305.7l16.9-17.2v28.1l13.7,13.7V343h-22.5v-29.1L657.2,305.7z
	 M1291.7,279.3v-9.6l24,24.5v32.5l-6.1,6.1v-25.6l-7.9-7.9v-10.1L1291.7,279.3z M614.3,231.5h34.1v12.2L638.2,254L614.3,231.5z
	 M355.7,230l18.3-18.3l18.1,18.3H355.7z M414,191.1h9.2l-9.3,9.3L414,191.1z M380.6,148.6l23.4-23.4l44.4,44.4v22l22.2,22.2
	l-13.4,13.4L445,215v35.1h-7l-22.8-22.8h-16.9v-8.5h19.9v-6.6l8.7-8.7v-13.2c0,0-7-7-20.9-20.9h-25.4L380.6,148.6L380.6,148.6z
	 M376.3,116.3h5.3l4,4.1h5.2l-19,19H366v-12.9L376.3,116.3z M352.6,113.4h11v20.3l-8.1,8.1h-6.4l-5.2,5.2v-24.1l8.7,8.9V113.4z
	 M333,111h10.6L333,121.2V111z M289.5,109.2h13.7l11.9,11.9v13.5l5.8-5.8v-17.3l10.1,10.1v12.7l-7.7,7.7l8.4,8.4v9.4h-7.5v6.4H314
	l-7.5-7.5l-4.6,4.6h-22.7v-10.2L269.1,143H294l-5.6-5.6h-13.7v-8.8h13.9l-2.9-2.9h-8.6v-4.1L289.5,109.2z M872,133.9l31.5-31.5
	l0.4,11l-23,23v31.7l11.4,11.4h-11l-9.4-9.4L872,133.9L872,133.9z M379.5,104l7.1-7.8v14.9L379.5,104z M740,120.4l-29.3-29.3l58,0.5
	L740,120.4z M355.9,82.8h25.8V90l-9.3,9.3L355.9,82.8z M387.5,79.5h5.7L410,96.3h-7.3l10.2,10.1h25.3l-12.3,12.3h-24.8l-7.2-7.2
	V85.8L387.5,79.5z M257.7,110.5L289,79.1l13,13v13.5h-14.5L271,122.2h-13.2L257.7,110.5L257.7,110.5z M47.2,151.7l78.3-79.4
	l64.1,64.1h54.7l37.3,37H295v-7.1h9.8l7.1,7.1h26.5l-3.5-3.5l11.7-11.7v15.2h5.1l5.2-5.2l-6.3-6.3v-8.7l11.5-11.5h5.3v31.8H391
	l7.2,7.2v24.4h-29.7l-51.8,51.8l38.8,38.8v17.1l15,15v-35.1h14.8v-49h22.6l14.9,14.9V286l23.4-23.4v26.2l25.9,25.9l-21.6,21.6h-35.8
	l-12.1,12.1h24v9.9l16.7,16.7H397l-35,35v10.9l-27.5,27.5v32.4h-9.7v-22.9h-69.7v56.7h29.4v-14.8h14.8v30.5h15.3v22.3l9.7,9.7H347
	l7.3-7.3h72.5l64.7,64.7h54.6v27.5L522.4,671v49.3h-38.8V756l-61.1,61v49.1l-14.1,14.1l20,20l-11.6,11.6l-37.7-37.7V696.2
	l-52.8-52.8v-36.3l17.5-17.5v-19.1h-26l-43.7-43.7h-33.3L175,461.2v-20.6l-26.1-27.3V254.9l-58.5-58.6l-61.5,61.2H9l40.4-40.7
	L26,193.7l42.5-42.5L47.2,151.7z M1163.8,70h12.2l5.5,5.5h-12.4L1163.8,70z M791,400.4v18.7l-43.6-43.6h-11.2l31.1,31.1l-17.2,17.2
	l-10.9-10.9h17.6L729,385h-17.8l-34.8,34.8h-9.8l-6.5,6.5h73.6V444h19.8l13.1,13.1h11.9v-9.3h64.1v-24.4h-22.9l-15.2-15.2l12.1-12.1
	H874l-27.2-27.2h-36.2v25l-6.5,6.5H791z M907.5,405l17.5,17.5v-29.6L908.2,376l16.8-16.8h-30l-10.2,11.6l22.8,22.8L907.5,405
	L907.5,405z M1005.2,67.8h37.7l10.7,11.1l11.4,11.2l-11.4,11.6v21.5l18.3-17.9h48l-9.8-9.8h24.2l25.7,25.7v-10.4h22.7l9.1-9.1
	l-21.2-21.2h43.3l10.7,10.7h23.9l9.9-9.9l10,10h55.4L1309,76.6h88.2l9.7,9.7l-6.4,6.4l16.8,16.8h-34.5v20.3l25.7,25.7l-34.4,34.4
	h-15.5v23l8.5,8.5v58.8L1326,239l24.2-24.2V170h-6.4v18.6l-4.7,4.7l-7.5-7.5h-11.4v31h-31l-22.5,22.5v33h12.2l15.8,15.8v65.1
	l-32.8,32.8l17.8,17.8l-16.6,16.6v-17.8l-16.7-16.7h-1.2l-8.7,8.7v-8.7h-6.1l-16.5,16.5h29.9l-15.9,15.9l18.2,18.2v34.9l-28.5,28.5
	h-33.5V512l16.1,16.1V548l-17.9,18l-26.4-26.4v21.6l19.3,19.3v15.8l-26.2-26.2v-37.4l-9.4-9.4l-10.2,10.2v-20.4l-15.3-15.3h-18.5
	l-31.6,31.6v14.4l-23,23l0.2-42.6l-49.6-49.6h-62.1l-15.7-15.7h-16.1l29.3,29.3h41.7L914,543.1l-71.5-71.5v-0.5l-10.8-10.8H827
	l28.7,28.7v25.4l36.9,36.9h36.2v12.3l-55.7,55.7v58.4l-25.8,25.8V722l-11.8,11.8v10l-31,31h-37.6v-20l-12.6-12.6V713l-13.7-13.7V627
	l-12.8-12.8v-30.4h-17.1L702,575h-13.7l-7.9,7.9h-34l-37.6-37.6V491l34.2-34.2v-13.9l16.9-16.5l-12.2-12.2v-30.5h32.6v-16.8
	l-6.4-6.4l38.3-38.3h6.8v-18.5l7.6-7.6v22.4h47.3v-34.3h25.5l6.1-6.1H769v-27.8l16.7-16.7l-19.4,2l2.2,8.8L754.8,258v34.9
	l-19.6,19.6v-23.9l-8.4-8.4l-13.4,13.4L698,278.2l29.3-29.3v-23.3l41.4-41.4h15.9l14.8,14.8h19.3l22.4,22.4H809l23.3,23.3l16.9-16.9
	v-22.7l12.3,12.3l16.7-16.7H914l-15.5-15.5h29.4l8.2,8.2h6.6L928,178.7v-30.5h13.3v20.3l15.7,15.7v19.6l-9.1,9.1H963v-23.6h9.5
	l-26-26h21.9L953.1,148c5.5-5.5,8.2-8.2,8.2-8.2s11.3,11.3,33.8,33.8h9.8c-28.9-28.9-43.4-43.4-43.4-43.4h26.2l-10.9-10.9l39.9-39.9
	C1009.1,71.6,1005.2,67.8,1005.2,67.8z M300,61.1l26-0.1l32,31.9h-26.2L300,61.1z M398,60.8l6.5-6.5v21.4H398V60.8z M337.3,47.6H362
	l-12.2,12.5L337.3,47.6z M854.7,47.4h15.8l-34.9,34.9l-22.1-20.6h27L854.7,47.4z M1173.2,42.3h17.6l-5.7,5.7h-6.2L1173.2,42.3z
	 M1128.9,42.3h41.2l-20.6,20.6L1128.9,42.3z M994.9,65.5l0.2-25.2l12.5,12.5L994.9,65.5z M384.9,65.5l-0.3-27.7l14,14L384.9,65.5z
	 M954.3,38.9l0.1-16.9l15.8,15.8h9.2l11.3,11.3l-6.1,6.1h-14L954.3,38.9z M594.1,21.1H622l46.5,46.5l-24.1,24.1v60L566,230h-10.2
	l-43.6,43.6l-7.5-7.5v-59l9.6-9.6v-71.4l-12.9-13h-23V75.4h23L541.8,35h38.4L594.1,21.1z M446.6,11h74.6l15.2,15.2l-11.3,11.3h-10.5
	l-25.2,25.2h-9.7l-38.6,38.6h-17.7l-13.6-13.6h17.9V73l8.5-8.5h8.5v-13l-16.8,16.8h-11.7V44.9l24.4-24.4v26.3h34.7l6-6H456l-9.3-9.3
	V11H446.6z M1533.4,693.8l-8.7,8.7l-5.4-5.7h5.6l8.4-8.4L1533.4,693.8L1533.4,693.8z"/>
<path class="st1" d="M1417.7,880.3l38.9-39.1l9.4,9.4l-39,39L1417.7,880.3z M1330.1,853.5l0.1-29.4l7,7h9.8v5.5L1330.1,853.5z
	 M1472.7,829.1l0.3-36.9l7.9,7.9V817l5.7,5.7l3.7-3.7l4.8,4.8l-24.8,24.8l-3.2-3.2l4.9-4.9v-4.3l-7.1-7.1H1472.7z M1445.5,700.2h3.3
	l12.5,12.5h-3.1L1445.5,700.2z M1459.4,670.2h2.8l8.3,8.3v20.8l-2.1-2.1v-18.3L1459.4,670.2z M1341.9,662l11-11v14.4l13,13v14.8
	l23.5,23.5v48.8l-27.6,27.6v14.6h-10.3l-9.9,9.9l-6.8-6.9l-4.6,4.6l-16.4-16.4v-8.5l-7.1-7.1l5.1-5.1v-7.8l-14.1,14.1v-19.4h-43.5
	l-9.5,9.5H1227l-5.7,5.7H1208l-8.6-8.6h8.7v-63.5l11.3-11.3h22.5l33-32.6l6,6l16.8-16.8h28.5L1313,667l18.3,18.3h10.6V662z
	 M883.9,673.3l24.7-24.7v66h-24.7V673.3z M1237.7,641.5h8.1v8.1L1237.7,641.5z M1261.4,638.9h17l-3.1,3.1h-6.5l-7.3,7.3
	L1261.4,638.9z M1181,625.5h23.8l8.7,8.7h41.3l3,3H1181V625.5z M1412.9,623.2h4.6l25.6,25.6h-5L1412.9,623.2z M1392.1,621.9
	l10.2-10.2v13.8h-19.1l-3.8-3.7h12.7L1392.1,621.9L1392.1,621.9z M1271,610.2h22.1l3.6,3.6H1275L1271,610.2z M1297.2,598.5h16.8v9.9
	l4.7,4.7l10.2-10.2l7.4,7.4h19.9l34.6,34.6H1376l-11.6-11.6h-15.7l6.8,6.8H1344l-22.3-22.3h-10.1V609l-4.2,4l-4.2-4.1h8.4v-2.8h-7.2
	L1297.2,598.5z M1246.3,590.4h24.7l-3.9,3.9h-18.7v6.3h15.5l-8.8,8.8l5.9,5.9l-5.5,5.5l-8.7-8.7v10.6l-7.1-7.1v-17.8L1246.3,590.4z
	 M1281.2,600v-15.8l8,7.8L1281.2,600z M1127.7,569h9.2l40.1,40.1v16.1l-49.3-49.3L1127.7,569L1127.7,569z M1205.2,586.4l23.9-23.9
	l6.4,6.4v31.6l-12.6,12.6h-13.1l-20-20l6.9-6.9L1205.2,586.4z M1266.2,555.4l8.4-8.1v13l-6.1,6.1l-11-11H1266.2z M1055.3,567.2V544
	l12.1,11.1L1055.3,567.2z M1228,553.6l15-14.9v5.3l-9.5,9.5h-5.5V553.6z M1245,533.4l-0.2-6.4l22.1,22.1h-6.2L1245,533.4z
	 M1242.4,501.6h9.6v25.9h6.6l12.2,12.2h-6.7l-12.4-12.2l0,0l-9.3-9.3L1242.4,501.6z M1187.6,495h12.2l-12.2,12.2V495z M315.2,480.9
	h12.9l17.8,17.8H383l8.2,8.2l-50.2-0.2L315.2,480.9z M1238.4,470.3l6.3-6.3v20.8l-6.2-6.2L1238.4,470.3z M781.1,422.5v-4.1h16.3v4.1
	H781.1z M712.7,379h5.1v21.6l-5.1-5.1V379z M1309,362.6l4-4l6.2,6.9v40.1h-10l-7.7,7.7h-17.6v15.4l-13.4-13.4l15.7-15.7h7.5
	l15.3-15.3V362.6z M1307.1,344.4v-16.2l9.6,9.6h12v5.4l-8.8,8.8h-12.6l3.8,3.8l-3.2,3.2l-7.7-7.7L1307.1,344.4z M434.4,343.7
	l24.4-24.4v24.4H434.4z M631.1,323.3l19.4-20.9v20.9H631.1z M648.2,294.7l16.9-17.2v28.1l13.7,13.7V332h-22.5v-29.1L648.2,294.7z
	 M1282.7,268.3v-9.6l24,24.5v32.5l-6.1,6.1v-25.6l-7.9-7.9v-10.1L1282.7,268.3z M605.3,220.5h34.1v12.2L629.2,243L605.3,220.5z
	 M346.7,219l18.3-18.3l18.1,18.3H346.7z M405,180.1h9.2l-9.3,9.3L405,180.1z M371.6,137.6l23.4-23.4l44.4,44.4v22l22.2,22.2
	l-13.4,13.4L436,204v35.1h-7l-22.8-22.8h-16.9v-8.5h19.9v-6.6l8.7-8.7v-13.2c0,0-7-7-20.9-20.9h-25.4L371.6,137.6L371.6,137.6z
	 M367.3,105.3h5.3l4,4.1h5.2l-19,19H357v-12.9L367.3,105.3z M343.6,102.4h11v20.3l-8.1,8.1h-6.4l-5.2,5.2v-24.1l8.7,8.9V102.4z
	 M324,100h10.6L324,110.2V100z M280.5,98.2h13.7l11.9,11.9v13.5l5.8-5.8v-17.3l10.1,10.1v12.7l-7.7,7.7l8.4,8.4v9.4h-7.5v6.4H305
	l-7.5-7.5l-4.6,4.6h-22.7v-10.2L260.1,132H285l-5.6-5.6h-13.7v-8.8h13.9l-2.9-2.9h-8.6v-4.1L280.5,98.2z M863,122.9l31.5-31.5
	l0.4,11l-23,23v31.7l11.4,11.4h-11l-9.4-9.4L863,122.9L863,122.9z M370.5,93l7.1-7.8v14.9L370.5,93z M731,109.4l-29.3-29.3l58,0.5
	L731,109.4z M346.9,71.8h25.8V79l-9.3,9.3L346.9,71.8z M378.5,68.5h5.7L401,85.3h-7.3l10.2,10.1h25.3l-12.3,12.3h-24.8l-7.2-7.2
	V74.8L378.5,68.5z M248.7,99.5L280,68.1l13,13v13.5h-14.5L262,111.2h-13.2V99.5H248.7z M38.2,140.7l78.3-79.4l64.1,64.1h54.7
	l37.3,37H286v-7.1h9.8l7.1,7.1h26.5l-3.5-3.5l11.7-11.7v15.2h5.1l5.2-5.2l-6.3-6.3v-8.7l11.5-11.5h5.3v31.8H382l7.2,7.2v24.4h-29.7
	l-51.8,51.8l38.8,38.8v17.1l15,15v-35.1h14.8v-49h22.6l14.9,14.9V275l23.4-23.4v26.2l25.9,25.9l-21.6,21.6h-35.8l-12.1,12.1h24v9.9
	l16.7,16.7H388l-35,35v10.9l-27.5,27.5v32.4h-9.7v-22.9h-69.7v56.7h29.4v-14.8h14.8v30.5h15.3v22.3l9.7,9.7H338l7.3-7.3h72.5
	l64.7,64.7h54.6v27.5L513.4,660v49.3h-38.8V745l-61.1,61v49.1l-14.1,14.1l20,20l-11.6,11.6l-37.7-37.7V685.2l-52.8-52.8v-36.3
	l17.5-17.5v-19.1h-26l-43.7-43.7h-33.3L166,450.2v-20.6l-26.1-27.3V243.9l-58.5-58.6l-61.5,61.2H0l40.4-40.7L17,182.7l42.5-42.5
	L38.2,140.7z M1154.8,59h12.2l5.5,5.5h-12.4L1154.8,59z M782,389.4v18.7l-43.6-43.6h-11.2l31.1,31.1l-17.2,17.2l-10.9-10.9h17.6
	L720,374h-17.8l-34.8,34.8h-9.8l-6.5,6.5h73.6V433h19.8l13.1,13.1h11.9v-9.3h64.1v-24.4h-22.9l-15.2-15.2l12.1-12.1H865l-27.2-27.2
	h-36.2v25l-6.5,6.5H782z M898.5,394l17.5,17.5v-29.6L899.2,365l16.8-16.8h-30l-10.2,11.6l22.8,22.8L898.5,394L898.5,394z
	 M996.2,56.8h37.7l10.7,11.1l11.4,11.2l-11.4,11.6v21.5l18.3-17.9h48l-9.8-9.8h24.2l25.7,25.7V99.8h22.7l9.1-9.1l-21.2-21.2h43.3
	l10.7,10.7h23.9l9.9-9.9l10,10h55.4L1300,65.6h88.2l9.7,9.7l-6.4,6.4l16.8,16.8h-34.5v20.3l25.7,25.7l-34.4,34.4h-15.5v23l8.5,8.5
	v58.8L1317,228l24.2-24.2V159h-6.4v18.6l-4.7,4.7l-7.5-7.5h-11.4v31h-31l-22.5,22.5v33h12.2l15.8,15.8v65.1l-32.8,32.8l17.8,17.8
	l-16.6,16.6v-17.8l-16.7-16.7h-1.2l-8.7,8.7v-8.7h-6.1l-16.5,16.5h29.9l-15.9,15.9l18.2,18.2v34.9l-28.5,28.5h-33.5V501l16.1,16.1
	V537l-17.9,18l-26.4-26.4v21.6l19.3,19.3v15.8l-26.2-26.2v-37.4l-9.4-9.4l-10.2,10.2v-20.4l-15.3-15.3h-18.5l-31.6,31.6v14.4l-23,23
	l0.2-42.6l-49.6-49.6h-62.1l-15.7-15.7h-16.1l29.3,29.3h41.7L905,532.1l-71.5-71.5v-0.5l-10.8-10.8H818l28.7,28.7v25.4l36.9,36.9
	h36.2v12.3l-55.7,55.7v58.4l-25.8,25.8V711l-11.8,11.8v10l-31,31h-37.6v-20l-12.6-12.6V702l-13.7-13.7V616l-12.8-12.8v-30.4h-17.1
	L693,564h-13.7l-7.9,7.9h-34l-37.6-37.6V480l34.2-34.2v-13.9l16.9-16.5l-12.2-12.2v-30.5h32.6v-16.8l-6.4-6.4l38.3-38.3h6.8v-18.5
	l7.6-7.6v22.4h47.3v-34.3h25.5l6.1-6.1H760v-27.8l16.7-16.7l-19.4,2l2.2,8.8L745.8,247v34.9l-19.6,19.6v-23.9l-8.4-8.4l-13.4,13.4
	L689,267.2l29.3-29.3v-23.3l41.4-41.4h15.9l14.8,14.8h19.3l22.4,22.4H800l23.3,23.3l16.9-16.9v-22.7l12.3,12.3l16.7-16.7H905
	l-15.5-15.5h29.4l8.2,8.2h6.6L919,167.7v-30.5h13.3v20.3l15.7,15.7v19.6l-9.1,9.1H954v-23.6h9.5l-26-26h21.9L944.1,137
	c5.5-5.5,8.2-8.2,8.2-8.2s11.3,11.3,33.8,33.8h9.8c-28.9-28.9-43.4-43.4-43.4-43.4h26.2l-10.9-10.9l39.9-39.9
	C1000.1,60.6,996.2,56.8,996.2,56.8z M291,50.1l26-0.1l32,31.9h-26.2L291,50.1z M389,49.8l6.5-6.5v21.4H389V49.8z M328.3,36.6H353
	l-12.2,12.5L328.3,36.6z M845.7,36.4h15.8l-34.9,34.9l-22.1-20.6h27L845.7,36.4z M1164.2,31.3h17.6l-5.7,5.7h-6.2L1164.2,31.3z
	 M1119.9,31.3h41.2l-20.6,20.6L1119.9,31.3z M985.9,54.5l0.2-25.2l12.5,12.5L985.9,54.5z M375.9,54.5l-0.3-27.7l14,14L375.9,54.5z
	 M945.3,27.9l0.1-16.9l15.8,15.8h9.2l11.3,11.3l-6.1,6.1h-14L945.3,27.9z M585.1,10.1H613l46.5,46.5l-24.1,24.1v60L557,219h-10.2
	l-43.6,43.6l-7.5-7.5v-59l9.6-9.6v-71.4l-12.9-13h-23V64.4h23L532.8,24h38.4L585.1,10.1z M437.6,0h74.6l15.2,15.2l-11.3,11.3h-10.5
	l-25.2,25.2h-9.7l-38.6,38.6h-17.7l-13.6-13.6h17.9V62l8.5-8.5h8.5v-13l-16.8,16.8h-11.7V33.9l24.4-24.4v26.3h34.7l6-6H447l-9.3-9.3
	V0H437.6z M1524.4,682.8l-8.7,8.7l-5.4-5.7h5.6l8.4-8.4L1524.4,682.8L1524.4,682.8z"/>
<g>
	<polygon class="st2" points="916,348.3 886,348.3 875.8,360 898.6,382.8 898.6,394.1 916.1,411.6 916.1,382 899.3,365.1 	"/>
	<path class="st2" d="M843.6,363.7l-5.8-5.8h-36.2v25l-6.5,6.5h-13v10.8v7.9l-5.8-5.8l-37.8-37.8h-11.2l18.6,18.6l2.3,2.3l10.2,10.2
		l-17.2,17.2l-10.9-10.9h17.6l-13.2-13.2l-4.3-4.3l-10.3-10.3h-17.8l-34.8,34.8h-9.8l-6.5,6.5h33.9h9.4H712h12.8v10.8v6.8h9.4h5.2
		h5.2l13.1,13.1h11.9v-9.3h57.7h6.4v-6.1v-18.3h-11.6h-8.7h-2.6l-4.3-4.3l-9.6-9.6l-1.3-1.3l3.9-3.9l8.2-8.2h7.7h6.1h8.9H865
		l-16.6-16.6L843.6,363.7z M712.8,379.1h5.1v21.6l-5.1-5.1V379.1z M797.5,422.6h-16.3v-4.1h16.3V422.6z"/>
	<polygon class="st2" points="384.2,68.6 378.6,68.6 384.8,74.9 384.8,100.7 392,107.9 416.9,107.9 429.2,95.6 403.9,95.6 
		393.8,85.4 401.1,85.4 	"/>
	<polygon class="st2" points="427.4,53.6 418.8,62.1 418.8,76.7 400.9,76.7 414.6,90.3 432.2,90.3 470.8,51.7 480.5,51.7 
		505.7,26.6 516.2,26.6 527.5,15.3 512.3,0.1 437.7,0.1 437.7,20.5 447.1,29.8 472.4,29.8 466.4,35.9 431.7,35.9 431.7,9.6 
		407.3,34 407.3,57.4 419,57.4 435.8,40.6 435.8,53.6 	"/>
	<polygon class="st2" points="389.7,40.8 375.8,26.8 376,54.6 	"/>
	<polygon class="st2" points="389.1,64.8 395.6,64.8 395.6,43.4 389.1,49.9 	"/>
	<polygon class="st2" points="357.1,115.6 357.1,128.6 362.9,128.6 381.9,109.6 376.7,109.6 372.7,105.4 367.4,105.4 	"/>
	<polygon class="st2" points="377.7,85.3 370.6,93.1 377.7,100.3 	"/>
	<polygon class="st2" points="349.1,82 317.1,50.1 291.1,50.2 322.9,82 	"/>
	<polygon class="st2" points="334.8,100.1 324.1,100.1 324.1,110.3 	"/>
	<polygon class="st2" points="293,152.5 297.6,147.9 305.2,155.4 315.3,155.4 315.3,149.1 322.9,149.1 322.9,139.7 314.4,131.2 
		322.1,123.5 322.1,110.9 312,100.7 312,118 306.2,123.8 306.2,110.3 294.3,98.3 280.6,98.3 268.2,110.8 268.2,114.9 276.8,114.9 
		279.7,117.8 265.7,117.8 265.7,126.5 279.5,126.5 285.1,132.2 260.2,132.2 270.3,142.3 270.3,152.5 	"/>
	<polygon class="st2" points="363.5,88.4 372.8,79.1 372.8,71.9 347,71.9 	"/>
	<polygon class="st2" points="353.1,36.7 328.4,36.7 340.9,49.2 	"/>
	<polygon class="st2" points="414.3,180.2 405.1,180.2 404.9,189.6 	"/>
	<polygon class="st2" points="343.7,121 334.9,112 334.9,136.1 340.2,130.9 346.5,130.9 354.7,122.7 354.7,102.5 343.7,102.5 	"/>
	<polygon class="st2" points="1268.8,642.1 1275.2,642.1 1278.5,639 1261.5,639 1261.5,649.5 	"/>
	<polygon class="st2" points="1293.2,610.2 1271.1,610.2 1275.1,613.8 1296.8,613.8 	"/>
	<polygon class="st2" points="1268.5,566.5 1274.6,560.5 1274.6,547.5 1266.2,555.5 1257.5,555.5 	"/>
	<polygon class="st2" points="1245.9,641.5 1237.8,641.5 1245.9,649.6 	"/>
	<polygon class="st2" points="1260.9,549.2 1267,549.2 1244.9,527 1245.1,533.5 	"/>
	<path class="st2" d="M439.5,158.7l-44.4-44.4l-23.4,23.4v20.8h25.4c14,14,20.9,20.9,20.9,20.9v13.2l-8.7,8.7v6.6h-19.9v8.5h16.9
		l22.8,22.8h7v-35.1l12.2,12.2l13.4-13.4l-22.2-22.2L439.5,158.7L439.5,158.7z"/>
	<path class="st2" d="M1127.8,569v6.9l49.3,49.3v-12.4c-0.2,0-0.3,0-0.5,0c-3,0-5.4-2.4-5.4-5.4c0-1.2,0.4-2.3,1.1-3.2l-19.5-19.5
		c-0.9,0.5-2,0.8-3.1,0.8c-3.8,0-6.8-3-6.8-6.8c0-1.1,0.3-2.2,0.8-3.1l-6.7-6.7h-9.2L1127.8,569L1127.8,569z"/>
	<path class="st2" d="M434.5,343.8h22.7c-0.7-0.8-1.2-1.8-1.2-3c0-1.9,1.2-3.5,2.9-4.2v-17.3L434.5,343.8z"/>
	<path class="st2" d="M1244.8,484.9v-10.2c-0.3,0-0.6,0.1-1,0.1c-2.1,0-4-1-5.3-2.5l0.1,6.4L1244.8,484.9z"/>
	<polygon class="st2" points="1233.6,553.6 1243.1,544.1 1243.1,538.8 1228.1,553.6 	"/>
	<polygon class="st2" points="1281.2,600 1289.2,592 1281.2,584.2 	"/>
	<path class="st2" d="M802.8,397c-1.6-0.6-2.8-1.9-3.3-3.6l-3.9,3.9l1.3,1.3c1.2-1.1,2.8-1.7,4.5-1.7
		C801.9,396.8,802.3,396.9,802.8,397z"/>
	<path class="st2" d="M1254.9,634.2H1228c0,0.2,0.1,0.5,0.1,0.7c0,0.8-0.2,1.6-0.5,2.3h30.3L1254.9,634.2z"/>
	<polygon class="st2" points="717.9,379.1 712.8,379.1 712.8,395.6 717.9,400.7 	"/>
	<rect x="781.2" y="418.5" class="st2" width="16.3" height="4.1"/>
	<path class="st2" d="M1166.2,582v-0.3c-0.1,0.1-0.1,0.2-0.2,0.4C1166.2,582.1,1166.2,582.1,1166.2,582z"/>
	<path class="st2" d="M743.5,393.3c-2.9,0-5.2-2.3-5.3-5.1c-0.7,0.4-1.6,0.6-2.5,0.6c-0.3,0-0.6,0-1-0.1l13.2,13.2h-17.6l10.9,10.9
		l17.2-17.2l-10.2-10.2c0.4,0.7,0.6,1.6,0.6,2.5C748.9,390.9,746.5,393.3,743.5,393.3z"/>
	<polygon class="st2" points="1486.6,822.8 1480.9,817 1480.9,800.2 1473,792.3 1472.8,829.1 1464.9,829.1 1472,836.3 1472,840.5 
		1467.1,845.5 1470.4,848.6 1495.2,823.8 1490.4,819 	"/>
	<polygon class="st2" points="1516.1,685.8 1510.4,685.8 1515.8,691.5 1524.5,682.8 1524.5,677.3 	"/>
	<path class="st2" d="M1398,75.4l-9.7-9.7h-88.2l14.7,14.7h-55.4l-10-10l-9.9,9.9h-23.9l-10.7-10.7h-43.3l21.2,21.2l-9.1,9.1H1151
		v10.4l-25.7-25.7h-24.2l9.8,9.8h-48l-18.3,17.9V90.8l11.4-11.6L1044.6,68l-10.7-11.1h-37.7c0,0,3.8,3.8,11.5,11.5l-39.9,39.9
		l10.9,10.9h-26.2c0,0,14.5,14.5,43.4,43.4h-9.8c-22.5-22.5-33.8-33.8-33.8-33.8s-2.7,2.7-8.2,8.2l15.3,15.3h-21.9l26,26h-9.4v23.6
		h-15.2l9.1-9.1v-19.6l-15.7-15.7v-20.3h-13.2v30.5l14.8,14.8h-6.6l-8.2-8.2h-29.4l15.5,15.5h-35.9l-16.7,16.7l-12.3-12.3v22.7
		l-16.9,16.9L800,210.4h32L809.6,188h-19.3l-14.8-14.8h-15.9l-41.4,41.4V238L689,267.3l15.4,15.4l8.9-8.9c-1.3-0.8-2.1-2.2-2.1-3.8
		c0-2.5,2-4.4,4.4-4.4c2.5,0,4.4,2,4.4,4.4c0,0.5-0.1,0.9-0.2,1.3l6.3,6.3v23.9l9.1-9.1c-0.1-0.4-0.2-0.9-0.2-1.4
		c0-2.5,2-4.4,4.4-4.4c0.5,0,0.9,0.1,1.4,0.2l5-5v-8.5c-1.4-0.7-2.4-2.2-2.4-3.9s1-3.2,2.4-3.9v-18.4l13.6-13.6l-2.2-8.8l19.4-2
		L760,239.4v27.8h36.5l-6,6c0,0.2,0.1,0.4,0.1,0.7c0,3-2.4,5.4-5.4,5.4s-5.4-2.4-5.4-5.4c0-0.2,0-0.4,0.1-0.6H765v34.3h-47.3v-22.4
		l-7.6,7.6v18.5h-6.8l-5.1,5.1c0.2,0,0.5-0.1,0.7-0.1c3,0,5.4,2.4,5.4,5.4s-2.4,5.4-5.4,5.4s-5.4-2.4-5.4-5.4c0-0.2,0-0.5,0.1-0.7
		L665,349.5l6.4,6.4v16.8h-32.6v30.5l12.2,12.2L634.1,432v13.9l-34.2,34.2v54.3l37.6,37.6h34l7.9-7.9h13.7l8.8,8.8H719v30.4
		l12.8,12.8v72.3l13.7,13.7v29.1l12.6,12.6v20h37.6l31-31v-10l11.8-11.8v-18.5l25.8-25.8v-58.4l55.7-55.7v-12.3h-36.2l-36.9-36.9
		v-25.3l-28.8-28.7h4.7l10.8,10.8v0.5l19.9,19.9c0.7-3,3.4-5.3,6.6-5.3c3.8,0,6.8,3,6.8,6.8c0,3.2-2.3,5.9-5.3,6.6l43.5,43.5
		l54.7-54.7h-21.7c-0.9,1.6-2.6,2.7-4.6,2.7s-3.7-1.1-4.6-2.7h-10.8l-0.2-0.2c-0.8,0.4-1.6,0.7-2.6,0.7c-3,0-5.4-2.4-5.4-5.4
		c0-0.9,0.3-1.8,0.7-2.6l-1.6-1.6c-0.9,0.7-2.1,1.2-3.4,1.2c-3,0-5.4-2.4-5.4-5.4c0-1.3,0.5-2.4,1.2-3.4L888.6,448h3.8
		c0-0.1,0-0.2,0-0.4c0-1.9,1-3.5,2.4-4.5c0.1-2.8,2.5-5.1,5.3-5.1c3,0,5.4,2.4,5.4,5.4c0,1.9-1,3.5-2.4,4.5v0.1h1.7l15.7,15.7h62.1
		l6.4,6.4c0.5-3.3,3.3-5.8,6.7-5.8c3.8,0,6.8,3,6.8,6.8c0,3.4-2.5,6.2-5.8,6.7l22.4,22.4c-0.2-0.7-0.4-1.4-0.4-2.2
		c0-0.3,0.1-0.6,0.1-0.9c-2.1-1.2-3.5-3.4-3.5-5.9c0-3.8,3-6.8,6.8-6.8c3.8,0,6.8,3,6.8,6.8c0,0.3-0.1,0.6-0.1,0.9
		c2.1,1.2,3.5,3.4,3.5,5.9c0,3.8-3,6.8-6.8,6.8c-0.8,0-1.5-0.1-2.1-0.4l8.8,8.8l-0.2,42.6l16.7-16.7c-0.1-0.5-0.1-0.9-0.1-1.4
		c0-0.4,0.1-0.7,0.1-1.1c-0.9,0.4-1.8,0.6-2.8,0.6c-3.8,0-6.8-3-6.8-6.8s3-6.8,6.8-6.8s6.8,3,6.8,6.8c0,0.4-0.1,0.7-0.1,1.1
		c0.8-0.3,1.6-0.6,2.4-0.6V519c-1.2,0.9-2.6,1.5-4.2,1.5c-3.8,0-6.8-3-6.8-6.8s3-6.8,6.8-6.8s6.8,3,6.8,6.8c0,1-0.2,2-0.7,2.9
		l19.7-19.7c-1.8-0.9-3-2.7-3-4.8c0-3,2.4-5.4,5.4-5.4c2.1,0,3.9,1.2,4.8,3l2.8-2.8h18.5l15.3,15.3v20.4l10.2-10.2l9.4,9.4v37.4
		l17.1,17.1c1-1.3,2.5-2.2,4.3-2.2c2.1,0,3.9,1.2,4.8,3v-7.5l-19.3-19.3v-21.6l26.4,26.4l17.9-18V537c-0.8,1.1-2.1,1.8-3.5,1.8
		c-2.5,0-4.4-2-4.4-4.4c0-2.5,2-4.4,4.4-4.4c1.4,0,2.7,0.7,3.5,1.8v-14.4l-16.1-16.1v-12.1h15.9c0.5-2,2.2-3.4,4.3-3.4
		c2.1,0,3.8,1.5,4.3,3.4h9l8.5-8.5c-0.8,0-1.5-0.2-2.1-0.6c-0.7,0.4-1.4,0.6-2.2,0.6c-2.5,0-4.4-2-4.4-4.4c0-2.5,2-4.4,4.4-4.4
		c0.8,0,1.6,0.2,2.2,0.6c0.7-0.4,1.4-0.6,2.2-0.6c2.4,0,4.3,1.9,4.4,4.3l15.5-15.5v-20c-0.1,0-0.2,0-0.3,0c-2.5,0-4.4-2-4.4-4.4
		c0-2.5,2-4.4,4.4-4.4c0.1,0,0.2,0,0.3,0v-6l-18.2-18.2l15.9-15.9h-29.9l16.5-16.5h6.1v8.7l8.7-8.7h1.2l12.9,12.9
		c0.3-2.7,2.5-4.8,5.3-4.8c3,0,5.4,2.4,5.4,5.4s-2.4,5.4-5.4,5.4c-0.5,0-1-0.1-1.5-0.3v15.9l8.8-8.8c-1.1-0.8-1.9-2.1-1.9-3.6
		c0-2.5,2-4.4,4.4-4.4c1.5,0,2.8,0.7,3.6,1.9l1.7-1.7l-17.8-17.8l32.8-32.8v-65.5l-15.8-15.8h-12.2v-33l22.5-22.5h31v-31h11.4
		l7.5,7.5l4.7-4.7v-18.5h6.4v44.8l-24.1,24.2l41.2,41.2v-58.8l-8.5-8.5v-23h15.5l34.4-34.4l-25.7-25.7V98.6h34.5l-16.8-16.8
		L1398,75.4z M646,392.3c-2.5,0-4.4-2-4.4-4.4c0-2.5,2-4.4,4.4-4.4s4.4,2,4.4,4.4S648.4,392.3,646,392.3z M827.8,676
		c2.5,0,4.4,2,4.4,4.4c0,2.5-2,4.4-4.4,4.4c-2.5,0-4.4-2-4.4-4.4S825.4,676,827.8,676z M923.7,495.4c2.5,0,4.4,2,4.4,4.4
		c0,2.5-2,4.4-4.4,4.4c-2.5,0-4.4-2-4.4-4.4S921.3,495.4,923.7,495.4z M841,286.7c3.8,0,6.8,3,6.8,6.8s-3,6.8-6.8,6.8
		s-6.8-3-6.8-6.8S837.2,286.7,841,286.7z M826,277.7c2.5,0,4.4,2,4.4,4.4s-2,4.4-4.4,4.4c-2.5,0-4.4-2-4.4-4.4
		S823.5,277.7,826,277.7z M763.8,314.4c2.5,0,4.4,2,4.4,4.4c0,2.5-2,4.4-4.4,4.4c-2.5,0-4.4-2-4.4-4.4
		C759.3,316.4,761.3,314.4,763.8,314.4z M747.7,337.2c3,0,5.4,2.4,5.4,5.4s-2.4,5.4-5.4,5.4s-5.4-2.4-5.4-5.4
		S744.7,337.2,747.7,337.2z M732.4,310.9c3,0,5.4,2.4,5.4,5.4s-2.4,5.4-5.4,5.4s-5.4-2.4-5.4-5.4
		C727.1,313.3,729.5,310.9,732.4,310.9z M711.5,350.2c0-3,2.4-5.4,5.4-5.4s5.4,2.4,5.4,5.4c0,2.3-1.5,4.2-3.5,5
		c2.8,0.1,5.1,2.5,5.1,5.3c0,3-2.4,5.4-5.4,5.4s-5.4-2.4-5.4-5.4c0-2.3,1.5-4.2,3.5-5C713.8,355.4,711.5,353.1,711.5,350.2z
		 M722.2,346.5c0-3,2.4-5.4,5.4-5.4s5.4,2.4,5.4,5.4s-2.4,5.4-5.4,5.4S722.2,349.4,722.2,346.5z M720.7,309.3c3,0,5.4,2.4,5.4,5.4
		s-2.4,5.4-5.4,5.4s-5.4-2.4-5.4-5.4S717.8,309.3,720.7,309.3z M710.6,322.4c2.7,0,5,2.1,5.3,4.7c1.9,0.8,3.2,2.7,3.2,4.9
		c0,3-2.4,5.4-5.4,5.4c-2.7,0-5-2.1-5.3-4.7c-1.9-0.8-3.2-2.7-3.2-4.9C705.3,324.8,707.7,322.4,710.6,322.4z M689.8,337
		c3,0,5.4,2.4,5.4,5.4s-2.4,5.4-5.4,5.4s-5.4-2.4-5.4-5.4S686.8,337,689.8,337z M679.7,337.9c2.5,0,4.4,2,4.4,4.4s-2,4.4-4.4,4.4
		c-2.5,0-4.4-2-4.4-4.4S677.2,337.9,679.7,337.9z M659.2,387.7c3,0,5.4,2.4,5.4,5.4s-2.4,5.4-5.4,5.4s-5.4-2.4-5.4-5.4
		S656.2,387.7,659.2,387.7z M649.8,436.5c-3.8,0-6.8-3-6.8-6.8s3-6.8,6.8-6.8s6.8,3,6.8,6.8S653.6,436.5,649.8,436.5z M727,572.2
		c-2.5,0-4.4-2-4.4-4.4c0-2.5,2-4.4,4.4-4.4c2.5,0,4.4,2,4.4,4.4S729.5,572.2,727,572.2z M815.5,449c-3,0-5.4-2.4-5.4-5.4
		s2.4-5.4,5.4-5.4s5.4,2.4,5.4,5.4S818.5,449,815.5,449z M830.4,385.1c1.4,1.2,2.3,3.1,2.3,5.1c0,3.8-3,6.8-6.8,6.8s-6.8-3-6.8-6.8
		c0-2,0.9-3.9,2.3-5.1h-6.1c0.2,0.6,0.3,1.3,0.3,2c0,3.5-2.7,6.4-6.1,6.7c-0.8,2-2.7,3.5-5,3.5c-0.4,0-0.7,0-1.1-0.1
		c2.7,0.9,4.6,3.4,4.6,6.4c0,1.7-0.7,3.3-1.7,4.5l4.3,4.3h2.6c-0.6-0.9-1-1.9-1-3.1c0-3,2.4-5.4,5.4-5.4s5.4,2.4,5.4,5.4
		c0,1.2-0.4,2.2-1,3.1h11.5v18.3c0.9-1.6,2.4-2.9,4.2-3.4c0-0.1,0-0.2,0-0.3c0-3,2.4-5.4,5.4-5.4s5.4,2.4,5.4,5.4
		c0,1.9-1,3.6-2.5,4.5c0.3,0.7,0.4,1.5,0.4,2.3c0,1.9-0.8,3.6-2,4.8l0,0c0,3.8-3,6.8-6.8,6.8c-0.5,0-1.1-0.1-1.6-0.2
		c-0.9,2.7-3.4,4.7-6.4,4.7c-3.8,0-6.8-3-6.8-6.8c0-2.9,1.8-5.4,4.4-6.4h-57.7v9.3h-11.9l-13-12.9h-5.2c1.6,0.9,2.8,2.7,2.8,4.7
		c0,3-2.4,5.4-5.4,5.4s-5.4-2.4-5.4-5.4c0-2,1.1-3.7,2.8-4.7h-9.4v-6.8c-0.6,0.2-1.3,0.3-1.9,0.3c-0.9,0-1.7-0.2-2.4-0.5
		c-1,1.4-2.6,2.3-4.4,2.3c-3,0-5.4-2.4-5.4-5.4c0-2,1.1-3.7,2.7-4.6c-0.7-0.8-1.2-1.8-1.3-2.9h-17.5c0.4,0.7,0.6,1.6,0.6,2.5
		c0,3-2.4,5.4-5.4,5.4s-5.4-2.4-5.4-5.4c0-0.9,0.2-1.7,0.6-2.5h-33.8l6.5-6.5h9.8l34.8-34.8h17.8l10.3,10.3c-0.1-0.3-0.1-0.6-0.1-1
		c0-3,2.4-5.4,5.4-5.4c2.9,0,5.2,2.3,5.3,5.1c0.7-0.4,1.6-0.6,2.5-0.6s1.7,0.2,2.5,0.6l-18.6-18.6h11.2l37.8,37.8
		c1-1.4,2.6-2.3,4.4-2.3c0.5,0,1,0.1,1.4,0.2v-10.8h13.1l6.5-6.5v-25H838l5.8,5.8c0-0.2-0.1-0.3-0.1-0.5c0-3,2.4-5.4,5.4-5.4
		s5.4,2.4,5.4,5.4s-2.4,5.4-5.4,5.4c-0.2,0-0.3,0-0.5-0.1l16.6,16.6L830.4,385.1L830.4,385.1z M844.3,409.5c0,3-2.4,5.4-5.4,5.4
		s-5.4-2.4-5.4-5.4s2.4-5.4,5.4-5.4C841.8,404.1,844.3,406.5,844.3,409.5z M866.9,324.7c-2.5,0-4.4-2-4.4-4.4s2-4.4,4.4-4.4
		c2.5,0,4.4,2,4.4,4.4S869.4,324.7,866.9,324.7z M871.4,410.6c0-3,2.4-5.4,5.4-5.4c0.5,0,0.9,0.1,1.4,0.2c1.2-1.7,3.2-2.7,5.4-2.7
		c3.8,0,6.8,3,6.8,6.8c0,0.5-0.1,1-0.2,1.4c0.1,0,0.1,0,0.2,0c3,0,5.4,2.4,5.4,5.4s-2.4,5.4-5.4,5.4s-5.4-2.4-5.4-5.4
		c0-0.1,0-0.1,0-0.2c-0.5,0.1-0.9,0.2-1.4,0.2c-1.4,0-2.8-0.4-3.8-1.2c-0.8,0.6-1.9,0.9-3,0.9C873.8,416,871.4,413.6,871.4,410.6z
		 M892.8,465.8c3.8,0,6.8,3,6.8,6.8s-3,6.8-6.8,6.8s-6.8-3-6.8-6.8C886,468.9,889.1,465.8,892.8,465.8z M895,438.7
		c-2.4,0-4.5-1.3-5.7-3.2c-0.4,2.6-2.6,4.7-5.3,4.7c-3,0-5.4-2.4-5.4-5.4s2.4-5.4,5.4-5.4c1.7,0,3.3,0.8,4.3,2.1
		c0.2-3.6,3.1-6.5,6.8-6.5c3.8,0,6.8,3,6.8,6.8C901.8,435.7,898.7,438.7,895,438.7z M916.1,411.6l-17.5-17.5v-11.3L875.8,360
		l10.2-11.6h30l-16.7,16.7l16.9,16.9v29.6H916.1z M923.7,268.5c-2.5,0-4.4-2-4.4-4.4s2-4.4,4.4-4.4c2.5,0,4.4,2,4.4,4.4
		S926.2,268.5,923.7,268.5z M944,420.8c-2.5,0-4.4-2-4.4-4.4c0-2.5,2-4.4,4.4-4.4c2.5,0,4.4,2,4.4,4.4S946.5,420.8,944,420.8z
		 M1000.4,385.6c-3,0-5.4-2.4-5.4-5.4s2.4-5.4,5.4-5.4s5.4,2.4,5.4,5.4S1003.4,385.6,1000.4,385.6z M1017.3,484.8
		c-3.8,0-6.8-3-6.8-6.8s3-6.8,6.8-6.8s6.8,3,6.8,6.8S1021.1,484.8,1017.3,484.8z M1041.6,482.9c-1,0-1.8-0.3-2.6-0.7
		c-0.9,1.6-2.6,2.6-4.6,2.6c-3,0-5.4-2.4-5.4-5.4s2.4-5.4,5.4-5.4c1,0,1.8,0.3,2.6,0.7c0.9-1.6,2.6-2.6,4.6-2.6c3,0,5.4,2.4,5.4,5.4
		S1044.5,482.9,1041.6,482.9z M1047.9,451.2c-0.8,1.9-2.7,3.2-4.9,3.2c-1.9,0-3.6-1-4.5-2.5c-0.7,1.5-2,2.7-3.6,3.4
		c0.5,0.9,0.8,2,0.8,3.1c0,3.8-3,6.8-6.8,6.8s-6.8-3-6.8-6.8c0-2.9,1.8-5.3,4.4-6.3c-0.5-0.9-0.8-2-0.8-3.1c0-2.7,1.6-5,3.9-6.1
		c-0.3-0.7-0.4-1.4-0.4-2.1c0-0.1,0-0.2,0-0.3l0,0c-3.8,0-6.8-3-6.8-6.8c0-0.6,0.1-1.2,0.3-1.8c-0.7,0.4-1.6,0.6-2.5,0.6
		c-3,0-5.4-2.4-5.4-5.4s2.4-5.4,5.4-5.4s5.4,2.4,5.4,5.4c0,0.3,0,0.6-0.1,0.9c1.1-0.7,2.3-1.1,3.7-1.1c3.8,0,6.8,3,6.8,6.8
		c0,0.7-0.1,1.3-0.3,1.9c0.9,0.2,1.7,0.6,2.4,1.2c-0.2-0.5-0.3-1.1-0.3-1.7c0-3,2.4-5.4,5.4-5.4s5.4,2.4,5.4,5.4
		c0,1.7-0.8,3.2-2.1,4.2c2.7,0.9,4.6,3.4,4.6,6.4C1050.9,447.9,1049.7,449.9,1047.9,451.2z M1051,459.9c0-3.8,3-6.8,6.8-6.8
		s6.8,3,6.8,6.8s-3,6.8-6.8,6.8C1054,466.7,1051,463.7,1051,459.9z M1066.7,487.5c-0.9,0-1.7-0.2-2.4-0.6c-1,1.3-2.5,2.1-4.3,2.1
		c-3,0-5.4-2.4-5.4-5.4s2.4-5.4,5.4-5.4c0.9,0,1.7,0.2,2.4,0.6c1-1.3,2.5-2.1,4.3-2.1c3,0,5.4,2.4,5.4,5.4
		S1069.7,487.5,1066.7,487.5z M1079.1,475.1c-3,0-5.4-2.4-5.4-5.4s2.4-5.4,5.4-5.4s5.4,2.4,5.4,5.4S1082,475.1,1079.1,475.1z
		 M1097.8,478c0.1,0.5,0.2,1,0.2,1.6c0,3.8-3,6.8-6.8,6.8s-6.8-3-6.8-6.8c0-2.2,1.1-4.1,2.7-5.4c-0.1-0.5-0.2-1-0.2-1.6
		c0-3.8,3-6.8,6.8-6.8s6.8,3,6.8,6.8C1100.5,474.8,1099.4,476.8,1097.8,478z M1152.8,530.6c-3.8,0-6.8-3-6.8-6.8s3-6.8,6.8-6.8
		s6.8,3,6.8,6.8C1159.6,527.5,1156.5,530.6,1152.8,530.6z M1165.2,521.5c-2.5,0-4.4-2-4.4-4.4c0-2.5,2-4.4,4.4-4.4
		c2.5,0,4.4,2,4.4,4.4S1167.6,521.5,1165.2,521.5z M1169.6,508.7c-2.5,0-4.4-2-4.4-4.4c0-2.5,2-4.4,4.4-4.4c2.5,0,4.4,2,4.4,4.4
		S1172.1,508.7,1169.6,508.7z M1199.9,186.1c-2.5,0-4.4-2-4.4-4.4c0-2.5,2-4.4,4.4-4.4c2.5,0,4.4,2,4.4,4.4
		C1204.2,184.1,1202.2,186.1,1199.9,186.1z M1209.9,384.7c-2.5,0-4.4-2-4.4-4.4c0-2.5,2-4.4,4.4-4.4s4.4,2,4.4,4.4
		C1214.2,382.7,1212.2,384.7,1209.9,384.7z"/>
	<polygon class="st2" points="1379.4,622 1383.2,625.5 1402.4,625.5 1402.4,611.8 1392.2,622 	"/>
	<polygon class="st2" points="1443.2,648.8 1417.6,623.2 1413,623.2 1438.2,648.8 	"/>
	<polygon class="st2" points="1417.8,880.3 1427.1,889.6 1466.2,850.6 1456.7,841.1 	"/>
	<path class="st2" d="M361.4,500.2c0.8,0,1.5,0.2,2.1,0.6c0.5-0.8,1.2-1.5,2-1.9h-19.6l-17.8-17.8h-12.9l25.8,25.8l16.5,0.1
		c-0.4-0.7-0.6-1.4-0.6-2.3C357,502.2,359,500.2,361.4,500.2z"/>
	<path class="st2" d="M144.8,407.4l0.8,0.8c0-0.1,0.1-0.2,0.1-0.4C145.3,407.7,145,407.6,144.8,407.4z"/>
	<path class="st2" d="M153.9,417l0.7,0.7c-0.1-0.2-0.2-0.5-0.3-0.7C154.2,417,154.1,417,153.9,417z"/>
	<path class="st2" d="M250.9,446.9h0.9c0-0.1,0.1-0.3,0.1-0.4C251.6,446.6,251.3,446.7,250.9,446.9z"/>
	<path class="st2" d="M413.6,855.1V806l61.1-61.1v-35.7h8.4c-1.1-1.2-1.8-2.8-1.8-4.6c0-3.7,3-6.8,6.8-6.8c0.5,0,1.1,0.1,1.6,0.2
		c0.6-2.4,2.7-4.1,5.2-4.1c3,0,5.4,2.4,5.4,5.4s-2.4,5.4-5.4,5.4c0,1.8-0.7,3.4-1.8,4.6h20.5V660l23.9-23.9v-27.5h-54.6l-64.7-64.7
		h-72.5l-7.3,7.3h-22.7l-9.7-9.7v-22.3h-15.3v-30.5h-14.8v14.8h-25.4c-1.2,1.9-3.3,3.1-5.7,3.1c-3.7,0-6.8-3-6.8-6.8s3-6.8,6.8-6.8
		c0.6,0,1.1,0.1,1.7,0.2V451c-1.1,0.7-2.4,1.2-3.8,1.2c-3.7,0-6.8-3-6.8-6.8s3-6.8,6.8-6.8c0.8,0,1.5,0.2,2.2,0.4
		c0.9-1.6,2.6-2.7,4.6-2.7c3,0,5.4,2.4,5.4,5.4c0,0.4-0.1,0.8-0.1,1.2c1.1-0.7,2.4-1.2,3.8-1.2c3.2,0,5.8,2.2,6.6,5.1h12.9
		c-0.7-0.9-1.1-2-1.1-3.2c0-3,2.4-5.4,5.4-5.4s5.4,2.4,5.4,5.4c0,1.2-0.4,2.3-1.1,3.2H313c0.5-1.7,1.6-3.2,3.1-4.1
		c0-0.1,0-0.2,0-0.4c0-3.7,3-6.8,6.8-6.8c1.3,0,2.6,0.4,3.6,1l26.8-26.8v-4.5c-1,0.6-2.1,0.9-3.3,0.9c-1.3,0-2.5-0.4-3.6-1
		c0.2,0.4,0.3,0.9,0.4,1.4c1.1,1,1.8,2.4,1.8,4c0,3-2.4,5.4-5.4,5.4c-0.2,0-0.4,0-0.6-0.1c-0.8,1.9-2.7,3.2-4.9,3.2
		c-1.2,0-2.3-0.4-3.2-1.1c-0.2,2.8-2.5,5.1-5.3,5.1c-1.5,0-2.9-0.7-3.9-1.7c-0.2-0.1-0.4-0.2-0.6-0.3c-0.4,2-1.8,3.5-3.7,4.1
		c-0.5,3-3,5.3-6.1,5.6v0.1c0,3-2.4,5.4-5.4,5.4s-5.4-2.4-5.4-5.4c0-1.7,0.8-3.1,2-4.1c-1.8-0.9-3.1-2.7-3.1-4.8
		c0-2.9,2.3-5.2,5.2-5.3c1-1.2,2.4-1.9,4.1-1.9c1.4,0,2.6,0.5,3.6,1.4l0.1-0.1c-0.7-0.9-1.2-2.1-1.2-3.3c0-3,2.4-5.4,5.4-5.4
		c1.7,0,3.2,0.8,4.2,2.1c1-0.6,2.2-1,3.5-1c1,0,2,0.2,2.8,0.6c0.2-2.8,2.5-4.9,5.3-4.9c0.4,0,0.7,0,1,0.1c1-1.3,2.5-2.2,4.3-2.2
		c0.9,0,1.7,0.2,2.5,0.6c-0.5-0.9-0.8-1.9-0.8-3c0-1.7,0.7-3.3,1.7-4.5c-0.2-0.5-0.3-1.1-0.3-1.6c0-2.2,1.4-4.2,3.3-5
		c0-0.1,0-0.3,0-0.4c0-3,2.4-5.4,5.4-5.4s5.4,2.4,5.4,5.4c0,2.2-1.4,4.2-3.3,5c0,0.1,0,0.3,0,0.4c0,0.6-0.1,1.1-0.3,1.6
		c0.3,0.4,0.6,0.8,0.9,1.3l5.5-5.5c-1-1-1.7-2.4-1.7-3.9c0-1.7,0.8-3.2,2-4.2c0.1-0.7,0.2-1.3,0.5-1.9c-1.5-0.9-2.6-2.6-2.6-4.5
		c0-3,2.4-5.4,5.4-5.4c0.3,0,0.6,0,0.8,0.1c-1.7-1.2-2.8-3.2-2.8-5.5c0-3.7,3-6.8,6.8-6.8s6.8,3,6.8,6.8c0,0.8-0.2,1.6-0.4,2.3
		c0.5-0.1,1-0.2,1.6-0.2c0.3,0,0.7,0.1,1,0.1c0.9-0.6,2-1,3.1-1c1,0,2,0.3,2.8,0.8l3.5-3.5h46.3l-16.7-16.7v-9.9h-24l12.1-12.1h35.8
		l21.6-21.6l-26-25.8v-26.2l-23.4,23.4v-27.4l-14.9-14.9h-22.6v49h-14.8V317l-15-15v-17.1l-38.8-38.8l51.8-51.8h29.7v-24.4l-7.2-7.2
		h-23.6v-31.8h-5.3l-11.5,11.5v8.7l6.3,6.3l-5.2,5.2h-5.1v-15.2l-11.7,11.7l3.5,3.5h-26.5l-7.1-7.1H286v7.1h-13.3l-37.3-37h-54.7
		l-64.1-64.1l-78.3,79.4l21.4-0.5L17,182.8l23.4,23.1L0.1,246.6H20l61.5-61.2L140,244v158.4l2.3,2.4c-0.5-1-0.9-2.1-0.9-3.3
		c0-2.7,1.6-5,3.9-6.1c-0.6-0.9-1-1.9-1-3.1c0-3,2.4-5.4,5.4-5.4s5.4,2.4,5.4,5.4c0,1.8-0.9,3.3-2.2,4.3c1.3,1.2,2.2,3,2.2,4.9
		c0,1.4-0.4,2.6-1.1,3.7c0.4,0.3,0.8,0.7,1.1,1.1c0.5,0.1,0.9,0.3,1.3,0.5c-0.2-0.5-0.3-1.1-0.3-1.6c0-3,2.4-5.4,5.4-5.4
		c1.4,0,2.6,0.5,3.6,1.4c0.2-3.6,3.1-6.5,6.8-6.5s6.8,3,6.8,6.8s-3,6.8-6.8,6.8c-2,0-3.8-0.9-5.1-2.3c-0.4,2.3-2.3,4.1-4.6,4.4
		c0.2,0.1,0.3,0.2,0.5,0.4c0.8-0.3,1.6-0.5,2.4-0.5c3.7,0,6.8,3,6.8,6.8s-3,6.8-6.8,6.8c-2.6,0-4.8-1.5-5.9-3.6
		c-0.9,0-1.8-0.4-2.6-0.8l9.7,10.1v20.6l65.7,65.7h33.3l43.7,43.7h26v19.1l-17.5,17.5v36.3l15.8,15.8c-0.1-0.4-0.2-0.8-0.2-1.3
		c0-3,2.4-5.4,5.4-5.4s5.4,2.4,5.4,5.4s-2.4,5.4-5.4,5.4c-0.4,0-0.9-0.1-1.3-0.2l33,33V863l37.7,37.7l11.6-11.6l-20-20L413.6,855.1z
		 M527.8,625.8c2.5,0,4.4,2,4.4,4.4c0,2.5-2,4.4-4.4,4.4c-2.5,0-4.4-2-4.4-4.4C523.4,627.6,525.4,625.8,527.8,625.8z M445.8,710
		c2.5,0,4.4,2,4.4,4.4c0,2.5-2,4.4-4.4,4.4c-2.5,0-4.4-2-4.4-4.4C441.3,712,443.3,710,445.8,710z M376.8,349.5c3,0,5.4,2.4,5.4,5.4
		s-2.4,5.4-5.4,5.4s-5.4-2.4-5.4-5.4S373.8,349.5,376.8,349.5z M252,435.1c-2.8,0-5-2.1-5.3-4.8c-2.4-1-4.1-3.4-4.1-6.2
		c0-2.5,1.4-4.7,3.5-5.9c-1.3-1-2.1-2.5-2.1-4.2c0-3,2.4-5.4,5.4-5.4s5.4,2.4,5.4,5.4c0,1.7-0.8,3.2-2.1,4.2
		c2.1,1.2,3.5,3.4,3.5,5.9c0,0.7-0.1,1.3-0.3,2c1,1,1.5,2.3,1.5,3.8C257.3,432.7,254.9,435.1,252,435.1z M254.7,388.3
		c-3,0-5.4-2.4-5.4-5.4s2.4-5.4,5.4-5.4c3,0,5.4,2.4,5.4,5.4C260,385.9,257.6,388.3,254.7,388.3z M275.2,404.7
		c-2.9,0-5.3-2.4-5.4-5.3c-0.7,0.3-1.6,0.5-2.4,0.5c-3.7,0-6.8-3-6.8-6.8c0-3.7,3-6.8,6.8-6.8c3.7,0,6.8,3,6.8,6.8
		c0,0.3-0.1,0.7-0.1,1c0.3-0.1,0.7-0.1,1.1-0.1s0.8,0.1,1.2,0.1c1.1-2.1,3.4-3.6,6-3.6c3.7,0,6.8,3,6.8,6.8s-3,6.8-6.8,6.8
		c-1.2,0-2.4-0.4-3.4-0.9C278,404.1,276.7,404.7,275.2,404.7z M269.5,365.5c3,0,5.4,2.4,5.4,5.4s-2.4,5.4-5.4,5.4s-5.4-2.4-5.4-5.4
		S266.6,365.5,269.5,365.5z M267.4,356.5c0-3.7,3-6.8,6.8-6.8s6.8,3,6.8,6.8c0,3.7-3,6.8-6.8,6.8S267.4,360.3,267.4,356.5z
		 M282.4,436.1c-3,0-5.4-2.4-5.4-5.4s2.4-5.4,5.4-5.4s5.4,2.4,5.4,5.4S285.3,436.1,282.4,436.1z M284.5,417.7c-3.8,0-6.8-3-6.8-6.8
		c0-3.7,3-6.8,6.8-6.8c3.7,0,6.8,3,6.8,6.8C291.3,414.6,288.2,417.7,284.5,417.7z M290.9,374.1c-1,0-1.9-0.3-2.7-0.7l0,0
		c-3,0-5.4-2.4-5.4-5.4s2.4-5.4,5.4-5.4c1,0,1.9,0.3,2.7,0.7l0,0c3,0,5.4,2.4,5.4,5.4S293.8,374.1,290.9,374.1z M291.8,337
		c0-2.5,2-4.4,4.4-4.4c2.5,0,4.4,2,4.4,4.4c0,2.5-2,4.4-4.4,4.4C293.8,341.5,291.8,339.5,291.8,337z M357.3,345.3
		c2.5,0,4.4,2,4.4,4.4c0,2.5-2,4.4-4.4,4.4c-2.5,0-4.4-2-4.4-4.4S354.9,345.3,357.3,345.3z M322.7,371c0.8,0,1.6,0.2,2.4,0.5
		c0.7-1.5,2-2.7,3.6-3.4c0-0.2-0.1-0.3-0.1-0.5c0-3.7,3-6.8,6.8-6.8c1.8,0,3.5,0.7,4.7,1.9h0.1c2.4,0,4.3,1.5,5.1,3.7
		c0.8-0.5,1.8-0.8,2.8-0.8c3,0,5.4,2.4,5.4,5.4s-2.4,5.4-5.4,5.4c-2.4,0-4.3-1.5-5.1-3.7c-0.8,0.5-1.8,0.8-2.8,0.8
		c-0.4,0-0.8-0.1-1.2-0.1c-0.4,0.2-0.8,0.5-1.2,0.6c0,0.2,0,0.3,0,0.5c0,2.1-1,4-2.5,5.3c0.1,0.4,0.1,0.9,0.1,1.3
		c0,0.5-0.1,1-0.2,1.5c0.2,0,0.4-0.1,0.6-0.1c3,0,5.4,2.4,5.4,5.4s-2.4,5.4-5.4,5.4s-5.4-2.4-5.4-5.4c0-0.1,0-0.2,0-0.3
		c-0.6,0.2-1.2,0.3-1.8,0.3c-2.4,0-4.5-1.3-5.7-3.2c-0.1,0-0.2,0-0.3,0c-3.7,0-6.8-3-6.8-6.8C315.9,374,318.9,371,322.7,371z
		 M311.7,384.1c0.9-0.6,1.9-1,3.1-1c3,0,5.4,2.4,5.4,5.4s-2.4,5.4-5.4,5.4c-2.1,0-3.8-1.2-4.7-2.9c-0.2,0.1-0.4,0.3-0.6,0.4
		c-0.1,0.8-0.4,1.6-0.7,2.3c0.8,0.9,1.4,2.2,1.4,3.5c0,2.4-1.6,4.4-3.8,5.1c0.1,0.4,0.2,0.9,0.2,1.3c0,3-2.4,5.4-5.4,5.4
		s-5.4-2.4-5.4-5.4c0-2.4,1.6-4.4,3.8-5.1c-0.1-0.4-0.2-0.9-0.2-1.3c0-0.3,0-0.6,0.1-0.8c-2.1-1.2-3.5-3.4-3.5-5.9
		c0-3.7,2.9-6.6,6.5-6.8c1-1.5,2.6-2.5,4.5-2.5C309.1,381.2,310.8,382.4,311.7,384.1z M164.9,332.4c-0.1,0-0.2,0-0.3,0
		c-0.2,2.8-2.5,5-5.3,5c-3,0-5.4-2.4-5.4-5.4s2.4-5.4,5.4-5.4c0.1,0,0.2,0,0.3,0c0.2-2.8,2.5-5,5.3-5c3,0,5.4,2.4,5.4,5.4
		S167.9,332.4,164.9,332.4z M181.1,428.6c-3.7,0-6.8-3-6.8-6.8c0-3.7,3-6.8,6.8-6.8s6.8,3,6.8,6.8S184.9,428.6,181.1,428.6z
		 M186.2,385.8c-3,0-5.4-2.4-5.4-5.4s2.4-5.4,5.4-5.4s5.4,2.4,5.4,5.4S189.1,385.8,186.2,385.8z M213.8,388c-3,0-5.4-2.4-5.4-5.4
		s2.4-5.4,5.4-5.4s5.4,2.4,5.4,5.4S216.7,388,213.8,388z M219.1,291.1c-2.5,0-4.4-2-4.4-4.4c0-2.5,2-4.4,4.4-4.4
		c2.5,0,4.4,2,4.4,4.4C223.6,289.1,221.6,291.1,219.1,291.1z M232.2,499.9c-2.5,0-4.4-2-4.4-4.4c0-2.5,2-4.4,4.4-4.4
		c0.7,0,1.4,0.2,2,0.5c-0.6-0.7-0.9-1.6-0.9-2.6c0-2.5,2-4.4,4.4-4.4c2.5,0,4.4,2,4.4,4.4c0,2.5-2,4.4-4.4,4.4c-0.7,0-1.4-0.2-2-0.5
		c0.6,0.7,0.9,1.6,0.9,2.6C236.7,497.9,234.7,499.9,232.2,499.9z M346.7,567.8c-3,0-5.4-2.4-5.4-5.4s2.4-5.4,5.4-5.4
		s5.4,2.4,5.4,5.4C352.1,565.3,349.7,567.8,346.7,567.8z M346.9,556.5c-3,0-5.4-2.4-5.4-5.4s2.4-5.4,5.4-5.4s5.4,2.4,5.4,5.4
		S349.9,556.5,346.9,556.5z M377.4,749.1c3,0,5.4,2.4,5.4,5.4s-2.4,5.4-5.4,5.4s-5.4-2.4-5.4-5.4
		C372.1,751.5,374.5,749.1,377.4,749.1z"/>
	<path class="st2" d="M319.4,460.9c0-1.6,0.6-3.1,1.5-4.2c0.1-0.6,0.3-1.1,0.6-1.6c-0.7,0.2-1.4,0.4-2.2,0.4c-1.3,0-2.4-0.3-3.4-0.9
		v15.3h9.7v-2.1C322.2,467.3,319.4,464.4,319.4,460.9z"/>
	<polygon class="st2" points="278.7,94.7 293.1,94.7 293.1,81.2 280.1,68.2 248.8,99.6 248.8,111.3 262.1,111.3 	"/>
	<polygon class="st2" points="1330.2,824.1 1330.2,853.5 1347.1,836.6 1347.1,831.1 1337.4,831.1 	"/>
	<polygon class="st2" points="383.2,219.1 365.1,200.8 346.8,219.1 	"/>
	<path class="st2" d="M1366,693.5v-14.8l-13-13V651l-11,11v23.2h-10.6l-18.3-18.2l13.1-13.1h-28.5l-16.8,16.8l-6-6l-33,32.6h-22.5
		l-11.3,11.3V772h-8.7l8.6,8.6h13.3l5.7-5.7h17.7l9.5-9.5h43.5v19.4l14.1-14.1v7.8l-5.1,5.1l7.1,7.1v8.5l16.4,16.4l4.6-4.6l6.8,6.9
		l9.9-9.9h10.3v-14.6l27.6-27.6V717L1366,693.5z M1214.5,767.8c-2.5,0-4.4-2-4.4-4.4s2-4.4,4.4-4.4c2.5,0,4.4,2,4.4,4.4
		S1216.9,767.8,1214.5,767.8z M1346.2,794c2.5,0,4.4,2,4.4,4.4c0,2.5-2,4.4-4.4,4.4c-2.5,0-4.4-2-4.4-4.4S1343.7,794,1346.2,794z
		 M1382.2,740.3c-2.5,0-4.4-2-4.4-4.4s2-4.4,4.4-4.4s4.4,2,4.4,4.4S1384.8,740.3,1382.2,740.3z"/>
	<path class="st2" d="M383.1,498.8h-12.4c1.7,0.9,2.8,2.7,2.8,4.7c0,1.3-0.5,2.5-1.3,3.4l19,0.1L383.1,498.8z"/>
	<path class="st2" d="M1356.2,610.5h-19.9l-7.4-7.4l-10.2,10.2l-4.7-4.7v-9.9h-16.8l7.3,7.9h7.2v2.8h-8.4l4.2,4.1l4.2-4v8.8h10.1
		l22.3,22.3h11.6l-6.8-6.8h15.7l11.4,11.3h14.8L1356.2,610.5z M1350.6,624.1c-2.5,0-4.4-2-4.4-4.4c0-2.5,2-4.4,4.4-4.4
		s4.4,2,4.4,4.4C1355.1,622.1,1353.1,624.1,1350.6,624.1z"/>
	<polygon class="st2" points="884,673.3 884,714.5 908.7,714.5 908.7,648.5 	"/>
	<path class="st2" d="M1055.4,544.6v10.1c1-1.4,2.6-2.3,4.4-2.3c2.8,0,5.1,2.2,5.3,5l2.4-2.4l-11.5-10.5
		C1055.8,544.6,1055.6,544.6,1055.4,544.6L1055.4,544.6z"/>
	<polygon class="st2" points="986.2,29.4 986,54.6 998.7,41.9 	"/>
	<polygon class="st2" points="1154.9,59.1 1160.2,64.6 1172.6,64.6 1167.1,59.1 	"/>
	<polygon class="st2" points="1161.2,31.4 1120,31.4 1140.6,52 	"/>
	<polygon class="st2" points="1187.7,507.3 1199.9,495.1 1187.7,495.1 	"/>
	<path class="st2" d="M1209.9,613.1h13.1l12.6-12.6V569l-6.4-6.4l-23.9,23.9l-8.5-0.1l-6.9,6.9L1209.9,613.1z M1233.1,599.3
		c0,3-2.4,5.4-5.4,5.4s-5.4-2.4-5.4-5.4s2.4-5.4,5.4-5.4C1230.7,594,1233.1,596.3,1233.1,599.3z M1224.9,570.1c2.5,0,4.4,2,4.4,4.4
		c0,2.5-2,4.4-4.4,4.4c-2.5,0-4.4-2-4.4-4.4S1222.4,570.1,1224.9,570.1z M1199.8,588.5c3,0,5.4,2.4,5.4,5.4s-2.4,5.4-5.4,5.4
		s-5.4-2.4-5.4-5.4C1194.4,591,1196.8,588.5,1199.8,588.5z"/>
	<polygon class="st2" points="1328.8,337.8 1316.8,337.8 1307.2,328.2 1307.2,344.5 1300.4,351.3 1308,358.9 1311.2,355.8 
		1307.4,352 1320,352 1328.8,343.2 	"/>
	<path class="st2" d="M1252.1,527.5v-5.2c-0.8,0.5-1.8,0.8-2.9,0.8c-0.8,0-1.6-0.2-2.3-0.5l4.9,4.9l0,0l12.4,12.2h6.7l-12.2-12.2
		H1252.1z"/>
	<path class="st2" d="M1249.2,512.5c1.1,0,2,0.3,2.9,0.8v-11.7h-9.6v16.6l1.9,1.9c-0.3-0.7-0.5-1.5-0.5-2.3
		C1243.8,514.8,1246.2,512.5,1249.2,512.5z"/>
	<path class="st2" d="M650.5,320.6c-2.9,0-5.3-2.4-5.3-5.4c0-2.9,2.4-5.3,5.3-5.4v-7.4l-19.4,20.9h19.4V320.6z"/>
	<polygon class="st2" points="605.4,220.6 629.3,243.1 639.5,232.9 639.5,220.6 	"/>
	<polygon class="st2" points="1282.8,268.4 1292.7,278.3 1292.7,288.4 1300.6,296.3 1300.6,321.9 1306.7,315.8 1306.7,283.3 
		1282.8,258.8 	"/>
	<polygon class="st2" points="469.5,64.5 469.5,102.3 492.5,102.3 505.4,115.2 505.4,186.6 495.8,196.2 495.8,255.3 503.3,262.7 
		546.9,219.1 557.1,219.1 635.4,140.8 635.4,80.8 659.5,56.7 613.1,10.2 585.2,10.2 571.4,24 532.9,24 492.5,64.5 	"/>
	<path class="st2" d="M674.6,332c-1.3-0.8-2.3-2-2.8-3.5c-0.8-0.7-1.5-1.5-1.9-2.4c-3-0.7-5.3-3.4-5.3-6.6c0-0.9,0.2-1.8,0.5-2.6
		c-0.8-0.9-1.3-2.1-1.3-3.4c0-2.5,1.7-4.6,4.1-5.2l-2.6-2.6v-3.3c-0.9,0.7-2,1.2-3.3,1.2c-3,0-5.4-2.4-5.4-5.4s2.4-5.4,5.4-5.4
		c1.2,0,2.4,0.4,3.3,1.2v-16.3l-16.9,17.2l8.1,8.1v29.1h18.1L674.6,332L674.6,332z"/>
	<polygon class="st2" points="1176.1,37.2 1181.8,31.4 1164.2,31.4 1169.8,37.2 	"/>
	<path class="st2" d="M1055.4,561v6.3l4-4C1057.8,563.1,1056.2,562.2,1055.4,561z"/>
	<polygon class="st2" points="1468.5,697.1 1470.6,699.3 1470.6,678.5 1462.2,670.2 1459.5,670.2 1468.5,679 	"/>
	<polygon class="st2" points="1461.2,712.8 1448.9,700.2 1445.6,700.2 1458.2,712.8 	"/>
	<path class="st2" d="M1248.4,600.5v-6.3h18.7l3.9-3.9h-24.7l-6.6,7.5v13.8c1.2-0.9,2.6-1.4,4.2-1.4c3.4,0,6.1,2.4,6.7,5.7l4.9,4.9
		l5.5-5.5l-5.9-5.9l8.8-8.8L1248.4,600.5L1248.4,600.5z"/>
	<polygon class="st2" points="883.5,168.6 872.1,157.2 872.1,125.4 895,102.5 894.7,91.4 863.1,123 863.1,159.2 872.5,168.6 	"/>
	<path class="st2" d="M1217.4,634.2h-0.5c-1.2,1.4-3,2.2-5,2.2s-3.8-0.9-5-2.3c-0.9,0.8-2.1,1.3-3.4,1.3c-3,0-5.4-2.4-5.4-5.4
		c0-2,1.1-3.7,2.7-4.6h-4.1c0.2,0.7,0.3,1.3,0.3,2.1c0,3.8-3,6.8-6.8,6.8c-1.8,0-3.4-0.7-4.7-1.9c-0.1,0-0.2,0-0.3,0
		c-1.6,0-3.1-0.6-4.3-1.5v6.2h36.8c-0.3-0.7-0.5-1.5-0.5-2.3C1217.4,634.8,1217.4,634.5,1217.4,634.2z"/>
	<polygon class="st2" points="759.9,80.8 701.9,80.3 731.1,109.5 	"/>
	<path class="st2" d="M1284,428.8v-15.4h17.6l7.7-7.7h10v-17.8c-0.2,0-0.5,0.1-0.7,0.1c-2.5,0-4.4-2-4.4-4.4c0-2.5,2-4.4,4.4-4.4
		c0.2,0,0.5,0,0.7,0.1v-13.5l-6.2-6.9l-4,4v21.7l-12.2,12.2c0.5-0.2,1-0.3,1.5-0.3c2.5,0,4.4,2,4.4,4.4c0-2.5,2-4.4,4.4-4.4
		s4.4,2,4.4,4.4c0,2.5-2,4.4-4.4,4.4s-4.4-2-4.4-4.4c0,2.5-2,4.4-4.4,4.4c-2.5,0-4.4-2-4.4-4.4c0-0.5,0.1-1,0.3-1.5l-0.4,0.4h-7.5
		l-15.7,15.7L1284,428.8z"/>
	<polygon class="st2" points="861.6,36.5 845.8,36.5 831.6,50.8 804.6,50.8 826.8,71.4 	"/>
	<polygon class="st2" points="975.7,44.3 981.9,38.2 970.6,26.9 961.3,26.9 945.5,11.1 945.4,28 961.7,44.3 	"/>
	<path class="st3" d="M500.2,699.2c0-3-2.4-5.4-5.4-5.4c-2.5,0-4.7,1.8-5.2,4.1c-0.5-0.1-1-0.2-1.6-0.2c-3.7,0-6.8,3-6.8,6.8
		c0,1.8,0.7,3.4,1.8,4.6h9.9c1.1-1.2,1.8-2.8,1.8-4.6C497.8,704.6,500.2,702.2,500.2,699.2z"/>
	<path class="st3" d="M237.8,499.8c0,3.7,3,6.8,6.8,6.8c2.4,0,4.5-1.2,5.7-3.1h-4v-10.3c-0.5-0.1-1.1-0.2-1.7-0.2
		C240.9,493.1,237.8,496.1,237.8,499.8z"/>
	<circle class="st3" cx="1209.9" cy="380.2" r="4.4"/>
	<path class="st3" d="M1093.7,465.8c-3.8,0-6.8,3-6.8,6.8c0,0.5,0.1,1.1,0.2,1.6c-1.6,1.2-2.7,3.2-2.7,5.4c0,3.8,3,6.8,6.8,6.8
		s6.8-3,6.8-6.8c0-0.5-0.1-1.1-0.2-1.6c1.6-1.2,2.7-3.2,2.7-5.4C1100.5,468.9,1097.5,465.8,1093.7,465.8z"/>
	<path class="st3" d="M456,340.8c0,1.1,0.4,2.2,1.2,3h1.7v-7.1C457.2,337.3,456,338.9,456,340.8z"/>
	<path class="st3" d="M823.1,409.4c0-3-2.4-5.4-5.4-5.4s-5.4,2.4-5.4,5.4c0,1.2,0.4,2.2,1,3.1h8.7
		C822.8,411.6,823.1,410.5,823.1,409.4z"/>
	<path class="st3" d="M799.5,393.4c0.5,1.7,1.7,3,3.3,3.6c-0.4-0.1-0.9-0.1-1.4-0.1c-1.7,0-3.3,0.7-4.5,1.7l9.6,9.6
		c1.1-1.2,1.7-2.8,1.7-4.5c0-3-2-5.5-4.6-6.4c0.3,0.1,0.7,0.1,1.1,0.1c2.3,0,4.3-1.5,5-3.5c3.4-0.4,6.1-3.2,6.1-6.7
		c0-0.7-0.1-1.3-0.3-2h-7.7L799.5,393.4z"/>
	<circle class="st3" cx="1307.2" cy="400.8" r="4.4"/>
	<path class="st3" d="M1055.4,544.6c0.2,0,0.4,0,0.6,0l-0.6-0.5V544.6L1055.4,544.6z"/>
	<path class="st3" d="M1298.2,405.3c2.5,0,4.4-2,4.4-4.4c0-2.5-2-4.4-4.4-4.4c-0.5,0-1,0.1-1.5,0.3l-2.7,2.7c-0.2,0.5-0.3,1-0.3,1.5
		C1293.9,403.3,1295.9,405.3,1298.2,405.3z"/>
	<path class="st3" d="M1228,634.2h-10.6c0,0.2-0.1,0.5-0.1,0.7c0,0.8,0.2,1.6,0.5,2.3h9.7c0.3-0.7,0.5-1.5,0.5-2.3
		C1228.1,634.8,1228.1,634.5,1228,634.2z"/>
	<path class="st3" d="M1059.8,552.5c-1.8,0-3.4,0.9-4.4,2.3v6.2c0.9,1.3,2.4,2.1,4,2.3l5.7-5.7
		C1064.9,554.8,1062.6,552.5,1059.8,552.5z"/>
	<path class="st3" d="M663.8,313.5c0,1.3,0.5,2.5,1.3,3.4c-0.3,0.8-0.5,1.7-0.5,2.6c0,3.2,2.3,5.9,5.3,6.6c0.4,1,1.1,1.8,1.9,2.4
		c0.5,1.5,1.5,2.7,2.8,3.5h4.4v-12.7l-11.1-11.1C665.5,308.9,663.8,311,663.8,313.5z"/>
	<path class="st3" d="M849,368.6c3,0,5.4-2.4,5.4-5.4s-2.4-5.4-5.4-5.4s-5.4,2.4-5.4,5.4c0,0.2,0,0.3,0.1,0.5l4.8,4.8
		C848.6,368.6,848.8,368.6,849,368.6z"/>
	<path class="st3" d="M1149.8,585.6c1.1,0,2.2-0.3,3.1-0.8l-9.1-9.1c-0.5,0.9-0.8,2-0.8,3.1C1143,582.6,1146,585.6,1149.8,585.6z"/>
	<path class="st3" d="M782.1,400.3c-0.5-0.1-0.9-0.2-1.4-0.2c-1.8,0-3.4,0.9-4.4,2.3l5.8,5.8L782.1,400.3L782.1,400.3z"/>
	<path class="st3" d="M684.4,418c0,3,2.4,5.4,5.4,5.4s5.4-2.4,5.4-5.4c0-0.9-0.2-1.7-0.6-2.5h-9.5
		C684.7,416.2,684.4,417.1,684.4,418z"/>
	<path class="st3" d="M827.3,436.8c-2.6,1-4.4,3.4-4.4,6.4c0,3.8,3,6.8,6.8,6.8c3,0,5.5-2,6.4-4.7c0.5,0.1,1,0.2,1.6,0.2
		c3.8,0,6.8-3,6.8-6.8l0,0c1.2-1.2,2-2.9,2-4.8c0-0.8-0.2-1.6-0.4-2.3c1.5-1,2.5-2.6,2.5-4.5c0-3-2.4-5.4-5.4-5.4s-5.4,2.4-5.4,5.4
		c0,0.1,0,0.2,0,0.3c-1.8,0.5-3.3,1.7-4.2,3.4v6.1h-6.3L827.3,436.8L827.3,436.8z"/>
	<path class="st3" d="M731.4,437.7c0,3,2.4,5.4,5.4,5.4s5.4-2.4,5.4-5.4c0-2-1.1-3.7-2.8-4.7h-5.2
		C732.6,434,731.4,435.7,731.4,437.7z"/>
	<ellipse class="st3" cx="1079.1" cy="469.7" rx="5.4" ry="5.4"/>
	<path class="st3" d="M258.3,441.8c-1.4,0-2.7,0.4-3.8,1.2c0.1-0.4,0.1-0.8,0.1-1.2c0-3-2.4-5.4-5.4-5.4c-2,0-3.7,1.1-4.6,2.7
		c-0.7-0.2-1.4-0.4-2.2-0.4c-3.7,0-6.8,3-6.8,6.8c0,3.7,3,6.8,6.8,6.8c1.4,0,2.7-0.4,3.8-1.2v-4.2h4.6c0.3-0.1,0.7-0.3,1-0.4
		c0,0.1-0.1,0.3-0.1,0.4h13.1C264.1,443.9,261.5,441.8,258.3,441.8z"/>
	<circle class="st3" cx="838.9" cy="409.5" r="5.4"/>
	<path class="st3" d="M712,415.5c0.1,1.1,0.6,2.1,1.3,2.9c-1.6,0.9-2.7,2.6-2.7,4.6c0,3,2.4,5.4,5.4,5.4c1.8,0,3.4-0.9,4.4-2.3
		c0.8,0.3,1.6,0.5,2.4,0.5c0.7,0,1.3-0.1,1.9-0.3v-10.8L712,415.5L712,415.5z"/>
	<path class="st3" d="M282.4,438.3c-3,0-5.4,2.4-5.4,5.4c0,1.2,0.4,2.3,1.1,3.2h8.5c0.7-0.9,1.1-2,1.1-3.2
		C287.7,440.7,285.3,438.3,282.4,438.3z"/>
	<path class="st3" d="M735.7,388.8c0.9,0,1.7-0.2,2.5-0.6c0.1,2.9,2.5,5.1,5.3,5.1c3,0,5.4-2.4,5.4-5.4c0-0.9-0.2-1.7-0.6-2.5
		l-2.3-2.3c-0.7-0.4-1.6-0.6-2.5-0.6s-1.7,0.2-2.5,0.6c-0.1-2.9-2.5-5.1-5.3-5.1c-3,0-5.4,2.4-5.4,5.4c0,0.3,0,0.6,0.1,1l4.3,4.3
		C735,388.8,735.4,388.8,735.7,388.8z"/>
	<path class="st3" d="M1252.1,522.3v-9c-0.8-0.5-1.8-0.8-2.9-0.8c-3,0-5.4,2.4-5.4,5.4c0,0.8,0.2,1.6,0.5,2.3l2.5,2.5
		c0.7,0.3,1.5,0.5,2.3,0.5C1250.2,523.2,1251.2,522.8,1252.1,522.3z"/>
	<path class="st3" d="M1185.6,632.5c1.2,1.1,2.8,1.9,4.7,1.9c3.8,0,6.8-3,6.8-6.8c0-0.7-0.1-1.4-0.3-2.1h-15.7v5.5
		c1.2,1,2.7,1.5,4.3,1.5C1185.4,632.5,1185.5,632.5,1185.6,632.5z"/>
	<circle class="st3" cx="1169.6" cy="504.3" r="4.4"/>
	<circle class="st3" cx="1165.2" cy="517" r="4.4"/>
	<path class="st3" d="M1041.6,472.1c-2,0-3.7,1.1-4.6,2.6c-0.8-0.4-1.7-0.7-2.6-0.7c-3,0-5.4,2.4-5.4,5.4s2.4,5.4,5.4,5.4
		c2,0,3.7-1.1,4.6-2.6c0.8,0.4,1.7,0.7,2.6,0.7c3,0,5.4-2.4,5.4-5.4S1044.5,472.1,1041.6,472.1z"/>
	<path class="st3" d="M1176.7,613c0.2,0,0.3,0,0.5,0v-3.8l-4.8-4.8c-0.7,0.9-1.1,2-1.1,3.2C1171.2,610.5,1173.7,613,1176.7,613z"/>
	<path class="st3" d="M1198.1,630.1c0,3,2.4,5.4,5.4,5.4c1.3,0,2.5-0.5,3.4-1.3c1.2,1.4,3,2.3,5,2.3s3.8-0.9,5-2.2h-3.4l-8.7-8.7
		h-4.1C1199.2,626.5,1198.1,628.1,1198.1,630.1z"/>
	<path class="st3" d="M1243.9,610.2c-1.6,0-3,0.5-4.2,1.4v4l7.1,7.1V612l3.8,3.8C1250.1,612.6,1247.2,610.2,1243.9,610.2z"/>
	<circle class="st3" cx="1057.8" cy="459.9" r="6.8"/>
	<path class="st3" d="M1066.7,476.7c-1.7,0-3.3,0.8-4.3,2.1c-0.7-0.4-1.5-0.6-2.4-0.6c-3,0-5.4,2.4-5.4,5.4s2.4,5.4,5.4,5.4
		c1.8,0,3.3-0.8,4.3-2.1c0.7,0.4,1.5,0.6,2.4,0.6c3,0,5.4-2.4,5.4-5.4S1069.7,476.7,1066.7,476.7z"/>
	<ellipse class="st3" cx="1017.3" cy="478" rx="6.8" ry="6.8"/>
	<path class="st3" d="M1243.8,474.8c0.3,0,0.7,0,1-0.1v-10.6l-6.3,6.3v1.9C1239.8,473.9,1241.7,474.8,1243.8,474.8z"/>
	<path class="st3" d="M1046.2,439.1c1.3-1,2.1-2.5,2.1-4.2c0-3-2.4-5.4-5.4-5.4s-5.4,2.4-5.4,5.4c0,0.6,0.1,1.2,0.3,1.7
		c-0.7-0.6-1.5-1-2.4-1.2c0.2-0.6,0.3-1.2,0.3-1.9c0-3.8-3-6.8-6.8-6.8c-1.4,0-2.6,0.4-3.7,1.1c0.1-0.3,0.1-0.6,0.1-0.9
		c0-3-2.4-5.4-5.4-5.4s-5.4,2.4-5.4,5.4s2.4,5.4,5.4,5.4c0.9,0,1.7-0.2,2.5-0.6c-0.2,0.6-0.3,1.2-0.3,1.8c0,3.8,3,6.8,6.8,6.8l0,0
		c0,0.1,0,0.2,0,0.3c0,0.8,0.2,1.5,0.4,2.1c-2.3,1.1-3.9,3.4-3.9,6.1c0,1.1,0.3,2.2,0.8,3.1c-2.5,1-4.4,3.4-4.4,6.3
		c0,3.8,3,6.8,6.8,6.8s6.8-3,6.8-6.8c0-1.1-0.3-2.2-0.8-3.1c1.6-0.6,2.9-1.8,3.6-3.4c0.9,1.5,2.6,2.5,4.5,2.5c2.2,0,4.1-1.3,4.9-3.2
		c1.8-1.2,3-3.3,3-5.6C1050.9,442.5,1048.9,440,1046.2,439.1z"/>
	<path class="st3" d="M895,425.2c-3.6,0-6.6,2.9-6.8,6.5c-1-1.3-2.5-2.1-4.3-2.1c-3,0-5.4,2.4-5.4,5.4s2.4,5.4,5.4,5.4
		c2.7,0,4.9-2,5.3-4.7c1.2,1.9,3.3,3.2,5.7,3.2c3.8,0,6.8-3,6.8-6.8C901.8,428.2,898.7,425.2,895,425.2z"/>
	<circle class="st3" cx="1152.8" cy="523.8" r="6.8"/>
	<circle class="st3" cx="892.8" cy="472.6" r="6.8"/>
	<circle class="st3" cx="1199.8" cy="594" r="5.4"/>
	<circle class="st3" cx="1227.7" cy="599.3" r="5.4"/>
	<circle class="st3" cx="866.9" cy="320.3" r="4.4"/>
	<path class="st3" d="M883.6,416.3c0.5,0,1-0.1,1.4-0.2c0,0.1,0,0.1,0,0.2c0,3,2.4,5.4,5.4,5.4s5.4-2.4,5.4-5.4s-2.4-5.4-5.4-5.4
		c-0.1,0-0.1,0-0.2,0c0.1-0.5,0.2-1,0.2-1.4c0-3.8-3-6.8-6.8-6.8c-2.2,0-4.2,1.1-5.4,2.7c-0.4-0.1-0.9-0.2-1.4-0.2
		c-3,0-5.4,2.4-5.4,5.4s2.4,5.4,5.4,5.4c1.1,0,2.1-0.3,3-0.9C880.8,415.9,882.2,416.3,883.6,416.3z"/>
	<circle class="st3" cx="1224.9" cy="574.6" r="4.4"/>
	<circle class="st3" cx="1199.9" cy="181.6" r="4.4"/>
	<circle class="st3" cx="1000.4" cy="380.2" r="5.4"/>
	<circle class="st3" cx="944" cy="416.4" r="4.4"/>
	<circle class="st3" cx="923.7" cy="264.1" r="4.4"/>
	<path class="st3" d="M1314.2,383.5c0,2.5,2,4.4,4.4,4.4c0.2,0,0.5,0,0.7-0.1V379c-0.2,0-0.5-0.1-0.7-0.1
		C1316.2,379.1,1314.2,381.1,1314.2,383.5z"/>
	<path class="st3" d="M1232.5,436c0,2.5,2,4.4,4.4,4.4c0.1,0,0.2,0,0.3,0v-8.8c-0.1,0-0.2,0-0.3,0
		C1234.5,431.6,1232.5,433.6,1232.5,436z"/>
	<path class="st3" d="M819.2,390.3c0,3.8,3,6.8,6.8,6.8s6.8-3,6.8-6.8c0-2-0.9-3.9-2.3-5.1h-8.9
		C820.1,386.4,819.2,388.2,819.2,390.3z"/>
	<circle class="st3" cx="269.5" cy="370.9" r="5.4"/>
	<path class="st3" d="M715.8,265.5c-2.5,0-4.4,2-4.4,4.4c0,1.6,0.8,3,2.1,3.8l4.5-4.5l2,2c0.1-0.4,0.2-0.8,0.2-1.3
		C720.2,267.5,718.2,265.5,715.8,265.5z"/>
	<path class="st3" d="M743.5,269.5c0,1.7,1,3.2,2.4,3.9v-7.9C744.5,266.3,743.5,267.8,743.5,269.5z"/>
	<circle class="st3" cx="284.5" cy="410.9" r="6.8"/>
	<path class="st3" d="M282.4,404.1c3.7,0,6.8-3,6.8-6.8s-3-6.8-6.8-6.8c-2.6,0-4.8,1.5-6,3.6c-0.4-0.1-0.8-0.1-1.2-0.1
		c-0.4,0-0.7,0-1.1,0.1c0-0.3,0.1-0.7,0.1-1c0-3.7-3-6.8-6.8-6.8c-3.7,0-6.8,3-6.8,6.8s3,6.8,6.8,6.8c0.8,0,1.7-0.2,2.4-0.5
		c0,2.9,2.4,5.3,5.4,5.3c1.5,0,2.8-0.6,3.8-1.6C280,403.7,281.1,404.1,282.4,404.1z"/>
	<circle class="st3" cx="282.4" cy="430.8" r="5.4"/>
	<circle class="st3" cx="1350.6" cy="619.8" r="4.4"/>
	<circle class="st3" cx="274.2" cy="356.5" r="6.8"/>
	<path class="st3" d="M785.2,279.3c3,0,5.4-2.4,5.4-5.4c0-0.2,0-0.4-0.1-0.7l-0.1,0.1h-10.5c0,0.2-0.1,0.4-0.1,0.6
		C779.9,276.9,782.3,279.3,785.2,279.3z"/>
	<path class="st3" d="M915.3,478c0.9,0,1.8-0.3,2.6-0.7l-7.2-7.2c-0.4,0.8-0.7,1.6-0.7,2.6C909.9,475.6,912.3,478,915.3,478z"/>
	<path class="st3" d="M1002.6,471.2c0-3.8-3-6.8-6.8-6.8c-3.4,0-6.2,2.5-6.7,5.8l7.7,7.7C1000,477.5,1002.6,474.7,1002.6,471.2z"/>
	<path class="st3" d="M905.7,443.6c0-3-2.4-5.4-5.4-5.4c-2.9,0-5.2,2.3-5.3,5.1c-1.5,1-2.4,2.6-2.4,4.5c0,0.1,0,0.2,0,0.4h10.7v-0.1
		C904.7,447.2,905.7,445.5,905.7,443.6z"/>
	<circle class="st3" cx="254.7" cy="382.9" r="5.4"/>
	<path class="st3" d="M933.4,480.2c2,0,3.7-1.1,4.6-2.7h-9.2C929.8,479.1,931.5,480.2,933.4,480.2z"/>
	<path class="st3" d="M256.1,424c0-2.5-1.4-4.7-3.5-5.9c1.3-1,2.1-2.5,2.1-4.2c0-3-2.4-5.4-5.4-5.4s-5.4,2.4-5.4,5.4
		c0,1.7,0.8,3.2,2.1,4.2c-2.1,1.2-3.5,3.4-3.5,5.9c0,2.8,1.7,5.2,4.1,6.2c0.3,2.7,2.5,4.8,5.3,4.8c3,0,5.4-2.4,5.4-5.4
		c0-1.5-0.6-2.8-1.5-3.8C256,425.3,256.1,424.7,256.1,424z"/>
	<path class="st3" d="M290.9,363.4C290.8,363.4,290.8,363.4,290.9,363.4c-0.8-0.5-1.7-0.7-2.7-0.7c-3,0-5.4,2.4-5.4,5.4
		s2.4,5.4,5.4,5.4l0,0c0.8,0.5,1.7,0.7,2.7,0.7c3,0,5.4-2.4,5.4-5.4S293.8,363.4,290.9,363.4z"/>
	<path class="st3" d="M698.9,327c3,0,5.4-2.4,5.4-5.4s-2.4-5.4-5.4-5.4c-0.2,0-0.5,0-0.7,0.1l-4.6,4.6c0,0.2-0.1,0.5-0.1,0.7
		C693.5,324.6,695.9,327,698.9,327z"/>
	<path class="st3" d="M866.9,482.1c0-3.8-3-6.8-6.8-6.8c-3.2,0-5.9,2.3-6.6,5.3l8.1,8.1C864.6,488,866.9,485.3,866.9,482.1z"/>
	<path class="st3" d="M905.7,469.7c1.3,0,2.4-0.5,3.4-1.2l-7.5-7.5c-0.7,0.9-1.2,2.1-1.2,3.4C900.3,467.3,902.7,469.7,905.7,469.7z"
		/>
	<circle class="st3" cx="186.2" cy="380.5" r="5.4"/>
	<path class="st3" d="M656.6,298.2c0,3,2.4,5.4,5.4,5.4c1.2,0,2.4-0.4,3.3-1.2V294c-0.9-0.7-2-1.2-3.3-1.2
		C659,292.8,656.6,295.2,656.6,298.2z"/>
	<circle class="st3" cx="213.8" cy="382.6" r="5.4"/>
	<circle class="st3" cx="181.1" cy="421.9" r="6.8"/>
	<circle class="st3" cx="377.4" cy="754.5" r="5.4"/>
	<path class="st3" d="M164.9,321.7c-2.8,0-5.1,2.2-5.3,5c-0.1,0-0.2,0-0.3,0c-3,0-5.4,2.4-5.4,5.4s2.4,5.4,5.4,5.4
		c2.8,0,5.1-2.2,5.3-5c0.1,0,0.2,0,0.3,0c3,0,5.4-2.4,5.4-5.4S167.9,321.7,164.9,321.7z"/>
	<circle class="st3" cx="346.7" cy="562.5" r="5.4"/>
	<path class="st3" d="M237.8,493.3c2.5,0,4.4-2,4.4-4.4c0-2.5-2-4.4-4.4-4.4c-2.5,0-4.4,2-4.4,4.4c0,1,0.3,1.9,0.9,2.6
		c-0.6-0.3-1.3-0.5-2-0.5c-2.5,0-4.4,2-4.4,4.4c0,2.5,2,4.4,4.4,4.4c2.5,0,4.4-2,4.4-4.4c0-1-0.3-1.9-0.9-2.6
		C236.4,493.1,237.1,493.3,237.8,493.3z"/>
	<path class="st3" d="M645.2,315.3c0,2.9,2.4,5.3,5.3,5.4V310C647.6,310,645.2,312.3,645.2,315.3z"/>
	<circle class="st3" cx="219.1" cy="286.7" r="4.4"/>
	<path class="st3" d="M370.7,498.8h-5.1c-0.8,0.5-1.5,1.1-2,1.9c-0.6-0.4-1.4-0.6-2.1-0.6c-2.5,0-4.4,2-4.4,4.4
		c0,0.8,0.2,1.6,0.6,2.3h14.6c0.8-0.9,1.3-2.1,1.3-3.4C373.5,501.5,372.4,499.7,370.7,498.8z"/>
	<circle class="st3" cx="1382.2" cy="736" r="4.4"/>
	<circle class="st3" cx="357.3" cy="349.7" r="4.4"/>
	<circle class="st3" cx="296.2" cy="337" r="4.4"/>
	<circle class="st3" cx="1346.2" cy="798.5" r="4.4"/>
	<path class="st3" d="M302.5,383.7c-3.6,0.1-6.5,3.1-6.5,6.8c0,2.5,1.4,4.7,3.5,5.9c0,0.3-0.1,0.5-0.1,0.8c0,0.5,0.1,0.9,0.2,1.3
		c-2.2,0.7-3.8,2.7-3.8,5.1c0,3,2.4,5.4,5.4,5.4s5.4-2.4,5.4-5.4c0-0.5-0.1-0.9-0.2-1.3c2.2-0.7,3.8-2.7,3.8-5.1
		c0-1.4-0.5-2.6-1.4-3.5c0.4-0.7,0.6-1.5,0.7-2.3c0.2-0.1,0.4-0.2,0.6-0.4c0.9,1.7,2.7,2.9,4.7,2.9c3,0,5.4-2.4,5.4-5.4
		s-2.4-5.4-5.4-5.4c-1.2,0-2.2,0.4-3.1,1c-0.9-1.7-2.7-2.9-4.7-2.9C305.1,381.2,303.4,382.2,302.5,383.7z"/>
	<circle class="st3" cx="1214.5" cy="763.5" r="4.4"/>
	<path class="st3" d="M322.7,384.5c0.1,0,0.2,0,0.3,0c1.2,1.9,3.3,3.2,5.7,3.2c0.6,0,1.2-0.1,1.8-0.3c0,0.1,0,0.2,0,0.3
		c0,3,2.4,5.4,5.4,5.4s5.4-2.4,5.4-5.4s-2.4-5.4-5.4-5.4c-0.2,0-0.4,0-0.6,0.1c0.1-0.5,0.2-1,0.2-1.5s0-0.9-0.1-1.3
		c1.5-1.2,2.5-3.1,2.5-5.3c0-0.2,0-0.3,0-0.5c0.4-0.2,0.8-0.4,1.2-0.6c0.4,0.1,0.8,0.1,1.2,0.1c1,0,2-0.3,2.8-0.8
		c0.7,2.1,2.7,3.7,5.1,3.7c3,0,5.4-2.4,5.4-5.4s-2.4-5.4-5.4-5.4c-1,0-2,0.3-2.8,0.8c-0.7-2.1-2.7-3.7-5.1-3.7h-0.1
		c-1.2-1.2-2.9-1.9-4.7-1.9c-3.7,0-6.8,3-6.8,6.8c0,0.2,0,0.3,0.1,0.5c-1.6,0.6-2.9,1.8-3.6,3.4c-0.7-0.3-1.5-0.5-2.4-0.5
		c-3.7,0-6.8,3-6.8,6.8C315.9,381.5,318.9,384.5,322.7,384.5z"/>
	<path class="st3" d="M735.2,291.1c0,0.5,0.1,0.9,0.2,1.4l5.6-5.6c-0.4-0.1-0.9-0.2-1.4-0.2C737.1,286.7,735.2,288.7,735.2,291.1z"
		/>
	<circle class="st3" cx="732.4" cy="316.3" r="5.4"/>
	<circle class="st3" cx="827.8" cy="680.3" r="4.4"/>
	<circle class="st3" cx="727.5" cy="346.5" r="5.4"/>
	<path class="st3" d="M713.1,360.5c0,3,2.4,5.4,5.4,5.4s5.4-2.4,5.4-5.4c0-2.9-2.3-5.2-5.1-5.3c2-0.8,3.5-2.7,3.5-5
		c0-3-2.4-5.4-5.4-5.4s-5.4,2.4-5.4,5.4c0,2.9,2.3,5.2,5.1,5.3C714.6,356.3,713.1,358.2,713.1,360.5z"/>
	<circle class="st3" cx="747.7" cy="342.6" r="5.4"/>
	<circle class="st3" cx="841" cy="293.5" r="6.8"/>
	<circle class="st3" cx="763.8" cy="318.9" r="4.4"/>
	<ellipse class="st3" cx="923.7" cy="499.8" rx="4.4" ry="4.4"/>
	<circle class="st3" cx="826" cy="282.2" r="4.4"/>
	<path class="st3" d="M315.9,442.4c0,0.1,0,0.2,0,0.4c-1.5,0.9-2.6,2.4-3.1,4.1h3.1v7.5c1,0.6,2.2,0.9,3.4,0.9
		c0.8,0,1.5-0.1,2.2-0.4c-0.3,0.5-0.5,1.1-0.6,1.6c-0.9,1.2-1.5,2.6-1.5,4.2c0,3.6,2.7,6.5,6.2,6.8v-30.3l0.6-0.6
		c-1-0.7-2.3-1-3.6-1C318.9,435.6,315.9,438.7,315.9,442.4z"/>
	<circle class="st3" cx="659.2" cy="393.1" r="5.4"/>
	<circle class="st3" cx="649.8" cy="429.7" r="6.8"/>
	<circle class="st3" cx="727" cy="567.8" r="4.4"/>
	<circle class="st3" cx="815.5" cy="443.6" r="5.4"/>
	<circle class="st3" cx="720.7" cy="314.6" r="5.4"/>
	<path class="st3" d="M708.4,332.7c0.3,2.7,2.6,4.7,5.3,4.7c3,0,5.4-2.4,5.4-5.4c0-2.2-1.3-4-3.2-4.9c-0.3-2.7-2.6-4.7-5.3-4.7
		c-3,0-5.4,2.4-5.4,5.4C705.3,329.9,706.6,331.8,708.4,332.7z"/>
	<circle class="st3" cx="679.7" cy="342.4" r="4.4"/>
	<circle class="st3" cx="689.8" cy="342.4" r="5.4"/>
	<circle class="st3" cx="646" cy="387.8" r="4.4"/>
	<circle class="st3" cx="527.8" cy="630.1" r="4.4"/>
	<path class="st3" d="M343.7,647c0-3-2.4-5.4-5.4-5.4s-5.4,2.4-5.4,5.4c0,0.4,0.1,0.9,0.2,1.3l3.9,3.9c0.4,0.1,0.8,0.2,1.3,0.2
		C341.3,652.3,343.7,650,343.7,647z"/>
	<path class="st3" d="M1079.1,486.8c-3,0-5.4,2.4-5.4,5.4c0,2.1,1.2,3.9,3,4.8l7.1-7.1C1083,488,1081.2,486.8,1079.1,486.8z"/>
	<path class="st3" d="M1161.5,574c-1.8,0-3.3,0.9-4.3,2.2l9.1,9.1V582c-0.1,0-0.1,0.1-0.2,0.1c0.1-0.1,0.1-0.2,0.2-0.4V577
		C1165.4,575.2,1163.6,574,1161.5,574z"/>
	<path class="st3" d="M164.9,424c3.7,0,6.8-3,6.8-6.8s-3-6.8-6.8-6.8c-0.9,0-1.7,0.2-2.4,0.5c-0.2-0.1-0.3-0.3-0.5-0.4
		c2.4-0.3,4.2-2.1,4.6-4.4c1.2,1.4,3,2.3,5.1,2.3c3.7,0,6.8-3,6.8-6.8c0-3.7-3-6.8-6.8-6.8c-3.6,0-6.6,2.9-6.8,6.5
		c-1-0.9-2.2-1.4-3.6-1.4c-3,0-5.4,2.4-5.4,5.4c0,0.6,0.1,1.1,0.3,1.6c-0.4-0.2-0.8-0.4-1.3-0.5c-0.3-0.4-0.7-0.8-1.1-1.1
		c0.7-1.1,1.1-2.3,1.1-3.7c0-2-0.8-3.7-2.2-4.9c1.3-1,2.2-2.5,2.2-4.3c0-3-2.4-5.4-5.4-5.4s-5.4,2.4-5.4,5.4c0,1.2,0.4,2.2,1,3.1
		c-2.3,1.1-3.9,3.4-3.9,6.1c0,1.2,0.3,2.3,0.9,3.3l2.5,2.6c0.3,0.2,0.6,0.3,0.8,0.4c0,0.1-0.1,0.2-0.1,0.4l8.4,8.8
		c0.1,0,0.2,0,0.3,0c0.1,0.3,0.2,0.5,0.3,0.7l1.8,1.9c0.8,0.5,1.6,0.8,2.6,0.8C160.2,422.5,162.4,424,164.9,424z"/>
	<path class="st3" d="M1032.2,498.2c0-2.5-1.4-4.7-3.5-5.9c0-0.3,0.1-0.6,0.1-0.9c0-3.8-3-6.8-6.8-6.8s-6.8,3-6.8,6.8
		c0,2.5,1.4,4.7,3.5,5.9c0,0.3-0.1,0.6-0.1,0.9c0,0.8,0.1,1.5,0.4,2.2l4.3,4.3c0.7,0.2,1.4,0.4,2.1,0.4
		C1029.2,505,1032.2,501.9,1032.2,498.2z"/>
	<circle class="st3" cx="445.8" cy="714.5" r="4.4"/>
	<path class="st3" d="M1050.9,506.9c-3.8,0-6.8,3-6.8,6.8c0,3.8,3,6.8,6.8,6.8c1.6,0,3-0.5,4.2-1.5v-0.5l1.9-1.9
		c0.4-0.9,0.7-1.9,0.7-2.9C1057.7,510,1054.6,506.9,1050.9,506.9z"/>
	<path class="st3" d="M1052.7,530.6c0-3.8-3-6.8-6.8-6.8s-6.8,3-6.8,6.8s3,6.8,6.8,6.8c1,0,2-0.2,2.8-0.6c-0.1,0.4-0.1,0.7-0.1,1.1
		c0,0.5,0.1,0.9,0.1,1.4l6.3-6.3v-1.9c-0.9,0-1.7,0.3-2.4,0.6C1052.7,531.3,1052.7,531,1052.7,530.6z"/>
	<path class="st3" d="M1195.4,485.6c-2.1,0-3.8,1.5-4.3,3.4h8.6C1199.2,487.1,1197.5,485.6,1195.4,485.6z"/>
	<path class="st3" d="M1265.6,392.6c-2.5,0-4.4,2-4.4,4.4c0,1.5,0.8,2.8,1.9,3.6l6.2-6.2C1268.4,393.4,1267.1,392.6,1265.6,392.6z"
		/>
	<path class="st3" d="M1261.1,388.4c0-3-2.4-5.4-5.4-5.4c-2.8,0-5,2.1-5.3,4.8l3.8,3.8v1.9c0.5,0.1,1,0.3,1.5,0.3
		C1258.7,393.8,1261.1,391.4,1261.1,388.4z"/>
	<path class="st3" d="M378.6,367.7c-0.3,0-0.6-0.1-1-0.1c-0.5,0-1.1,0.1-1.6,0.2c0.3-0.7,0.4-1.5,0.4-2.3c0-3.7-3-6.8-6.8-6.8
		s-6.8,3-6.8,6.8c0,2.3,1.1,4.3,2.8,5.5c-0.3,0-0.5-0.1-0.8-0.1c-3,0-5.4,2.4-5.4,5.4c0,1.9,1,3.6,2.6,4.5c-0.3,0.6-0.4,1.2-0.5,1.9
		c-1.2,1-2,2.5-2,4.2c0,1.5,0.7,2.9,1.7,3.9l23.3-23.3c-0.8-0.5-1.8-0.8-2.8-0.8C380.6,366.6,379.5,367,378.6,367.7z"/>
	<circle class="st3" cx="376.8" cy="354.9" r="5.4"/>
	<path class="st3" d="M1217.4,471.7c-0.8,0-1.6,0.2-2.2,0.6c-0.7-0.4-1.4-0.6-2.2-0.6c-2.5,0-4.4,2-4.4,4.4c0,2.5,2,4.4,4.4,4.4
		c0.8,0,1.6-0.2,2.2-0.6c0.6,0.4,1.3,0.6,2.1,0.6l4.6-4.6C1221.7,473.6,1219.8,471.7,1217.4,471.7z"/>
	<path class="st3" d="M355.2,393.3c0-0.1,0-0.3,0-0.4c1.9-0.8,3.3-2.7,3.3-5c0-3-2.4-5.4-5.4-5.4s-5.4,2.4-5.4,5.4
		c0,0.1,0,0.3,0,0.4c-1.9,0.8-3.3,2.7-3.3,5c0,0.6,0.1,1.1,0.3,1.6c-1.1,1.2-1.7,2.7-1.7,4.5c0,1.1,0.3,2.1,0.8,3
		c-0.7-0.4-1.6-0.6-2.5-0.6c-1.8,0-3.4,0.9-4.3,2.2c-0.3-0.1-0.7-0.1-1-0.1c-2.8,0-5.1,2.2-5.3,4.9c-0.9-0.4-1.8-0.6-2.8-0.6
		c-1.3,0-2.5,0.4-3.5,1c-1-1.2-2.5-2.1-4.2-2.1c-3,0-5.4,2.4-5.4,5.4c0,1.3,0.5,2.4,1.2,3.3l-0.1,0.1c-1-0.9-2.2-1.4-3.6-1.4
		c-1.6,0-3.1,0.7-4.1,1.9c-2.9,0.1-5.2,2.5-5.2,5.3c0,2.1,1.3,4,3.1,4.8c-1.2,1-2,2.5-2,4.1c0,3,2.4,5.4,5.4,5.4s5.4-2.4,5.4-5.4
		v-0.1c3.1-0.3,5.6-2.6,6.1-5.6c1.9-0.6,3.3-2.1,3.7-4.1c0.2,0.1,0.4,0.2,0.6,0.3c1,1,2.3,1.7,3.9,1.7c2.9,0,5.2-2.3,5.3-5.1
		c0.9,0.7,2,1.1,3.2,1.1c2.2,0,4-1.3,4.9-3.2c0.2,0,0.4,0.1,0.6,0.1c3,0,5.4-2.4,5.4-5.4c0-1.6-0.7-3-1.8-4
		c-0.1-0.5-0.2-0.9-0.4-1.4c1,0.6,2.3,1,3.6,1c1.2,0,2.3-0.3,3.3-0.9v-6.5l2.6-2.6c-0.2-0.5-0.5-0.9-0.9-1.3
		C355.1,394.5,355.2,393.9,355.2,393.3z"/>
	<circle class="st3" cx="346.9" cy="551.2" r="5.4"/>
	<path class="st3" d="M1187.8,529.8c-2.5,0-4.4,2-4.4,4.4c0,2.5,2,4.4,4.4,4.4c1.4,0,2.7-0.7,3.5-1.8v-5.3
		C1190.5,530.5,1189.2,529.8,1187.8,529.8z"/>
</g>
</svg>
